<?xml version="1.0" standalone="no"?>
<!DOCTYPE svg PUBLIC "-//W3C//DTD SVG 20010904//EN"
 "http://www.w3.org/TR/2001/REC-SVG-20010904/DTD/svg10.dtd">
<svg version="1.0" xmlns="http://www.w3.org/2000/svg"
 width="674.000000pt" height="606.000000pt" viewBox="0 0 674.000000 606.000000"
 preserveAspectRatio="xMidYMid meet">

<g transform="translate(0.000000,606.000000) scale(0.100000,-0.100000)"
fill="#000000" stroke="none">
<path d="M3337 5799 c-20 -5 -47 -15 -60 -23 -12 -8 -43 -17 -69 -21 -27 -3
-48 -10 -48 -15 0 -4 -29 -22 -65 -39 -35 -17 -76 -43 -89 -56 -19 -19 -36
-25 -68 -25 -59 0 -85 -9 -91 -29 -3 -11 -21 -22 -51 -30 -34 -8 -58 -24 -91
-59 -25 -26 -45 -55 -45 -64 0 -10 -6 -18 -13 -18 -25 0 -47 -67 -47 -145 0
-64 -3 -77 -20 -87 -11 -7 -20 -18 -20 -25 0 -7 -7 -13 -15 -13 -8 0 -15 -5
-15 -10 0 -10 -20 -30 -67 -70 -7 -5 -19 -10 -28 -10 -8 0 -15 -9 -15 -19 0
-11 -4 -22 -9 -26 -6 -3 -26 -37 -45 -75 -35 -68 -36 -73 -36 -186 0 -114 9
-160 47 -251 7 -17 13 -40 13 -52 0 -12 6 -21 15 -21 12 0 15 -14 15 -65 0
-58 2 -65 20 -65 16 0 20 -7 20 -37 0 -45 18 -113 29 -113 10 0 43 -112 35
-119 -3 -3 -11 2 -18 12 -9 11 -26 17 -50 17 l-36 0 0 -170 c0 -163 1 -170 20
-170 19 0 20 7 20 137 0 111 2 134 13 121 6 -9 33 -26 60 -38 26 -12 47 -27
47 -34 0 -16 53 -76 68 -76 8 0 12 -18 12 -55 0 -48 2 -55 20 -55 16 0 20 -7
20 -34 0 -23 -5 -35 -17 -39 -93 -31 -110 -43 -137 -94 -21 -42 -22 -168 -1
-189 8 -9 15 -26 15 -40 0 -16 6 -24 18 -25 10 0 6 -4 -10 -9 -15 -4 -47 -24
-71 -43 -36 -31 -48 -35 -82 -32 -104 12 -402 5 -455 -10 -30 -8 -65 -15 -78
-15 -12 0 -39 -9 -59 -20 -21 -11 -45 -20 -53 -20 -9 0 -34 -13 -56 -29 -21
-16 -55 -32 -75 -36 -20 -4 -48 -18 -62 -31 -14 -13 -33 -24 -42 -24 -8 0 -15
-4 -15 -9 0 -5 -18 -16 -39 -25 -22 -8 -51 -31 -66 -50 -15 -19 -35 -38 -46
-41 -10 -4 -19 -13 -19 -21 0 -8 -9 -14 -20 -14 -11 0 -20 -3 -20 -7 0 -5 -33
-24 -72 -43 -66 -32 -112 -64 -142 -97 -6 -7 -30 -34 -54 -60 -66 -74 -72 -82
-72 -93 0 -5 -7 -10 -15 -10 -8 0 -15 -7 -15 -15 0 -8 -7 -15 -15 -15 -8 0
-15 -7 -15 -15 0 -8 -7 -15 -15 -15 -8 0 -15 -8 -15 -18 0 -10 -16 -32 -35
-49 -19 -17 -35 -41 -35 -52 0 -12 -4 -21 -9 -21 -5 0 -14 -14 -21 -30 -7 -17
-16 -30 -21 -30 -5 0 -9 -9 -9 -20 0 -11 -7 -20 -15 -20 -8 0 -15 -8 -15 -18
0 -17 -16 -43 -50 -81 -22 -25 -56 -99 -70 -151 -7 -25 -16 -54 -20 -65 -5
-11 -11 -32 -14 -47 -3 -15 -13 -33 -21 -42 -9 -9 -15 -33 -15 -65 0 -36 -5
-53 -18 -63 -10 -7 -23 -37 -30 -66 -15 -65 -16 -262 -2 -262 6 0 10 -37 10
-90 0 -70 3 -90 14 -90 8 0 16 -16 20 -41 4 -22 15 -50 26 -62 11 -11 20 -29
20 -39 0 -11 7 -18 20 -18 11 0 20 -7 20 -15 0 -8 9 -20 20 -27 11 -7 20 -21
20 -30 0 -10 7 -18 15 -18 8 0 15 -7 15 -15 0 -8 9 -15 20 -15 11 0 20 -7 20
-15 0 -10 10 -15 30 -15 20 0 30 -5 30 -15 0 -8 7 -15 15 -15 8 0 15 -7 15
-15 0 -8 7 -15 16 -15 17 0 93 -39 109 -56 5 -7 24 -14 40 -17 17 -3 55 -11
85 -16 30 -6 56 -15 58 -21 2 -5 19 -10 37 -10 18 0 35 -5 37 -10 4 -13 59
-27 333 -88 90 -20 266 -29 449 -23 61 2 83 6 92 19 11 15 34 17 222 13 185
-3 210 -1 215 13 5 13 22 16 82 16 41 0 75 4 75 9 0 5 9 13 20 16 11 3 20 13
20 21 0 10 12 14 40 14 29 0 40 -4 40 -15 0 -11 11 -15 35 -15 22 0 38 -6 41
-15 5 -13 43 -15 255 -15 l249 0 0 -30 c0 -19 5 -30 14 -30 8 0 16 -7 20 -15
4 -11 22 -15 71 -15 49 0 67 -4 71 -15 9 -22 222 -21 270 1 19 9 34 20 34 25
0 4 12 14 27 21 16 7 36 30 46 51 17 36 18 37 75 37 51 0 60 3 82 30 14 17 34
30 44 30 11 0 36 18 55 39 53 57 101 81 166 81 30 0 55 4 55 9 0 5 14 14 31
21 17 7 53 35 80 62 27 27 49 44 49 38 0 -5 7 -10 15 -10 9 0 18 -7 21 -15 4
-8 12 -15 20 -15 8 0 14 -7 14 -15 0 -8 6 -15 13 -15 7 0 24 -12 37 -28 14
-15 46 -38 73 -52 26 -14 47 -28 47 -32 0 -4 16 -10 35 -14 19 -3 35 -11 35
-18 0 -12 66 -36 99 -36 11 0 24 -6 28 -13 4 -6 25 -20 46 -29 32 -15 69 -18
257 -18 135 0 221 4 225 10 13 20 95 50 139 50 39 0 49 4 68 30 12 16 27 30
34 30 6 0 14 7 18 15 3 8 12 15 21 15 8 0 15 7 15 15 0 9 9 15 22 15 28 0 84
43 100 78 7 15 36 41 63 59 67 42 115 91 115 117 0 12 7 30 15 40 8 11 15 39
15 63 0 24 5 43 10 43 6 0 10 20 10 45 0 25 -4 45 -10 45 -6 0 -10 28 -10 65
0 51 -3 65 -15 65 -12 0 -15 16 -15 80 0 64 -3 80 -15 80 -8 0 -18 12 -21 27
-4 16 -11 31 -16 34 -5 3 -12 23 -15 44 -3 21 -14 46 -25 57 -10 10 -18 27
-18 37 0 11 -5 23 -10 26 -6 3 -15 27 -21 51 -7 25 -18 48 -25 51 -8 3 -14 13
-14 23 0 9 -9 25 -20 35 -11 10 -20 24 -20 30 0 7 -7 16 -15 19 -9 3 -23 22
-31 41 -8 19 -19 35 -24 35 -6 0 -10 5 -10 11 0 13 -89 99 -102 99 -14 0 -68
44 -132 107 l-53 53 5 160 c5 158 4 160 -17 160 -16 0 -21 6 -21 25 0 14 -8
35 -17 47 -35 43 -117 117 -150 135 -31 16 -33 21 -33 70 0 40 -4 53 -15 53
-10 0 -15 10 -15 30 0 17 -5 30 -11 30 -17 0 -65 53 -81 90 -30 69 -38 91 -38
105 0 20 -43 84 -57 85 -7 0 -13 7 -13 15 0 8 -9 15 -20 15 -11 0 -20 7 -20
15 0 8 -9 24 -21 36 -14 14 -19 28 -15 42 3 12 6 32 6 45 0 13 6 22 15 22 24
0 22 168 -2 186 -19 14 -26 6 110 124 l29 26 6 156 5 155 -60 59 c-33 33 -76
72 -96 88 l-37 29 0 89 c0 72 -3 88 -15 88 -9 0 -19 8 -22 17 -10 26 -36 53
-50 53 -7 0 -13 7 -13 15 0 8 -9 15 -20 15 -11 0 -20 7 -20 15 0 8 -4 15 -10
15 -5 0 -16 16 -24 35 -8 19 -20 35 -25 35 -6 0 -11 11 -11 24 0 13 -7 29 -15
36 -8 7 -15 19 -15 27 0 8 -7 21 -15 29 -8 9 -15 33 -15 55 0 21 -4 39 -9 39
-5 0 -13 9 -16 21 -4 12 -16 30 -26 40 -10 10 -19 28 -19 39 0 11 -7 20 -15
20 -8 0 -15 7 -15 15 0 8 -8 15 -18 15 -11 0 -25 16 -37 45 -11 25 -26 45 -32
45 -7 0 -13 8 -13 19 0 14 -10 21 -35 25 -21 4 -35 13 -35 21 0 8 -7 15 -15
15 -8 0 -15 9 -15 20 0 13 -7 20 -20 20 -11 0 -20 6 -20 14 0 8 -16 16 -40 20
-22 3 -40 11 -40 16 0 6 -7 10 -15 10 -8 0 -15 7 -15 15 0 10 -10 15 -28 15
-16 0 -38 9 -50 20 -12 11 -28 20 -37 20 -9 0 -33 9 -53 19 -20 10 -63 22 -95
26 -51 7 -57 10 -57 31 0 13 -9 32 -20 41 -11 10 -20 23 -20 30 0 7 -11 13
-24 13 -14 0 -28 5 -31 10 -8 13 -80 46 -117 54 -16 4 -28 11 -28 16 0 6 -10
10 -22 10 -13 0 -56 9 -97 20 -78 21 -160 24 -224 9z m263 -63 c87 -23 210
-70 210 -81 0 -5 15 -17 33 -25 19 -9 33 -24 35 -36 3 -21 2 -21 -160 -17 -90
3 -187 4 -216 4 -39 -1 -54 3 -58 14 -4 8 -15 15 -25 15 -10 0 -19 6 -19 14 0
14 -85 26 -187 26 -40 0 -53 4 -53 15 0 11 11 15 40 15 29 0 40 4 40 15 0 11
12 15 45 15 33 0 45 4 45 15 0 11 19 15 88 18 48 1 96 4 107 5 11 1 45 -5 75
-12z m-455 -116 c3 -5 39 -10 80 -10 40 0 75 -4 77 -9 2 -4 23 -17 48 -28 l45
-20 -50 -7 c-27 -3 -63 -11 -80 -18 -16 -6 -52 -13 -78 -16 -40 -3 -48 -7 -44
-21 3 -14 -2 -16 -29 -13 -22 3 -39 -2 -49 -12 -9 -9 -27 -16 -40 -16 -13 0
-30 -3 -39 -6 -12 -5 -16 1 -16 24 0 17 6 35 14 39 8 4 15 16 17 27 2 10 23
28 46 40 24 11 45 29 48 39 7 18 40 23 50 7z m-175 -63 c0 -7 -9 -23 -21 -35
-11 -13 -18 -28 -16 -35 8 -22 -14 -47 -60 -69 -25 -12 -48 -30 -51 -40 -2
-10 -10 -18 -18 -18 -7 0 -18 -8 -23 -19 -6 -10 -27 -22 -47 -26 -43 -8 -74
-25 -74 -41 0 -6 -7 -17 -15 -24 -13 -11 -15 -5 -15 44 0 43 3 56 15 56 8 0
15 9 15 20 0 11 4 20 8 20 16 0 72 57 72 73 0 10 8 17 20 17 11 0 20 7 20 15
0 9 9 15 21 15 11 0 27 7 35 15 9 8 24 15 35 15 10 0 19 7 19 15 0 11 11 15
40 15 26 0 40 -4 40 -13z m965 -33 c11 -4 27 -12 36 -20 8 -7 55 -25 103 -39
81 -24 144 -49 156 -64 3 -3 21 -15 40 -25 19 -11 37 -22 40 -26 3 -3 22 -14
43 -24 42 -20 53 -29 112 -101 22 -26 66 -74 98 -105 31 -31 57 -64 57 -73 0
-10 4 -17 8 -17 5 0 15 -19 22 -42 17 -58 41 -112 52 -119 5 -3 12 -25 15 -48
4 -25 11 -41 19 -41 8 0 14 -6 14 -14 0 -8 6 -16 14 -19 8 -3 20 -18 28 -34 7
-15 23 -32 35 -38 54 -27 93 -91 93 -150 l0 -35 -65 0 c-51 0 -65 3 -65 15 0
13 -23 15 -150 15 -100 0 -150 -4 -150 -11 0 -6 -9 -8 -21 -4 -26 9 -111 -14
-122 -32 -4 -7 -13 -13 -18 -13 -6 0 -17 -7 -25 -15 -9 -8 -26 -15 -39 -15
-12 0 -25 -7 -29 -15 -3 -8 -17 -15 -31 -15 -16 0 -25 -6 -25 -15 0 -10 -10
-15 -30 -15 -20 0 -30 5 -30 15 0 8 -9 15 -20 15 -11 0 -20 7 -20 15 0 8 -7
15 -15 15 -16 0 -77 39 -83 53 -2 4 -19 7 -38 7 -24 0 -34 5 -34 15 0 11 -12
15 -45 15 -29 0 -48 5 -51 14 -7 17 -155 27 -249 16 -81 -10 -156 -30 -170
-46 -5 -6 -28 -14 -51 -18 -46 -7 -124 -47 -159 -82 -13 -13 -29 -40 -36 -61
-7 -21 -21 -47 -31 -59 -10 -12 -18 -36 -18 -57 0 -24 -5 -40 -15 -43 -11 -5
-15 -24 -15 -79 0 -41 5 -77 10 -80 6 -3 10 -14 10 -24 0 -10 11 -30 25 -45
14 -15 25 -36 25 -47 0 -10 5 -19 10 -19 6 0 10 -7 10 -15 0 -10 10 -15 30
-15 19 0 40 -10 61 -31 19 -19 45 -32 68 -35 66 -9 81 -14 81 -28 0 -10 19
-15 66 -18 36 -2 68 -9 72 -15 4 -7 56 -14 127 -18 132 -7 191 3 290 49 29 14
71 28 93 32 32 5 43 12 53 36 20 49 43 58 154 58 161 -1 308 -23 354 -53 21
-14 54 -30 72 -35 l34 -8 0 -79 0 -79 -60 -18 c-91 -28 -331 -43 -430 -28 -49
8 -132 11 -215 8 -167 -7 -369 -54 -495 -116 -44 -22 -96 -43 -115 -47 -48
-10 -120 -43 -120 -55 0 -6 -17 -29 -38 -53 -21 -23 -48 -55 -59 -72 -20 -29
-23 -41 -43 -155 -12 -63 -2 -340 11 -340 5 0 9 -16 9 -35 0 -25 4 -35 15 -35
9 0 18 -8 22 -17 3 -10 21 -32 40 -48 18 -17 33 -38 33 -48 0 -12 8 -17 25
-17 14 0 28 -7 31 -15 4 -8 12 -15 20 -15 8 0 14 -7 14 -15 0 -8 9 -15 20 -15
11 0 20 -7 20 -15 0 -11 11 -15 39 -15 22 0 46 -6 53 -13 17 -18 89 -35 177
-43 39 -4 71 -11 71 -15 0 -15 128 -11 134 4 5 10 7 10 12 0 3 -8 26 -13 59
-13 31 0 73 -8 100 -20 26 -11 60 -20 76 -20 l30 0 -17 -32 c-28 -54 -29 -54
-159 -46 -72 4 -134 3 -155 -3 -63 -17 -210 -36 -210 -27 0 5 -9 4 -19 -2 -28
-15 -51 -12 -51 5 0 14 -17 20 -47 16 -7 -1 -13 3 -13 9 0 5 -9 10 -20 10 -11
0 -20 5 -20 10 0 6 -16 10 -35 10 -22 0 -38 6 -41 15 -4 9 -19 15 -35 15 -19
0 -29 5 -29 15 0 8 -7 15 -15 15 -9 0 -15 9 -15 25 0 21 -5 25 -30 25 -18 0
-33 6 -36 15 -4 8 -15 15 -25 15 -10 0 -19 7 -19 15 0 8 -4 15 -10 15 -5 0
-10 7 -10 15 0 8 -5 15 -10 15 -6 0 -40 29 -78 65 -37 36 -70 65 -74 65 -5 0
-8 6 -8 13 0 7 -9 18 -20 25 -11 7 -20 22 -20 35 0 12 -9 28 -20 35 -11 7 -20
21 -20 32 0 11 -7 20 -15 20 -9 0 -15 9 -15 24 0 13 -7 26 -15 30 -10 4 -15
20 -15 51 0 25 -4 45 -10 45 -5 0 -10 14 -10 30 0 21 -5 30 -16 30 -11 0 -14
6 -8 23 3 12 11 28 16 34 6 7 8 19 5 28 -4 8 0 21 8 29 17 17 20 36 5 36 -5 0
-10 23 -10 50 0 28 5 50 10 50 6 0 10 6 10 14 0 9 -18 16 -52 20 -71 9 -118
27 -118 44 0 9 -7 13 -19 9 -22 -5 -50 22 -70 69 -16 39 -6 124 15 124 8 0 14
7 14 15 0 8 6 15 14 15 8 0 16 7 20 15 3 9 18 15 36 15 20 0 30 5 30 15 0 8 9
15 20 15 11 0 20 7 20 15 0 8 9 15 20 15 11 0 20 -7 20 -15 0 -8 7 -15 16 -15
9 0 25 -11 36 -25 16 -20 75 -55 94 -55 2 0 4 11 4 25 0 17 -5 25 -18 25 -25
0 -92 58 -92 80 0 22 -61 63 -82 55 -18 -7 -38 34 -38 75 0 23 5 30 20 30 11
0 20 -7 20 -15 0 -8 9 -15 20 -15 19 0 20 7 21 163 l1 162 24 -50 c13 -27 24
-57 24 -67 0 -9 20 -38 45 -65 25 -26 47 -55 50 -63 8 -22 49 -49 85 -56 44
-9 41 23 -5 42 -23 9 -35 21 -35 34 0 13 -7 20 -20 20 -11 0 -20 6 -20 13 0 7
-9 18 -20 25 -13 8 -20 23 -20 42 0 20 -5 30 -15 30 -8 0 -15 7 -15 15 0 8 -4
15 -10 15 -5 0 -15 20 -21 45 -7 28 -18 47 -30 50 -10 4 -19 11 -19 16 0 5 -9
9 -20 9 -15 0 -20 -7 -20 -24 0 -14 -5 -28 -11 -32 -7 -4 -10 -41 -9 -103 4
-139 3 -148 -20 -154 -14 -4 -24 2 -32 16 -6 12 -26 35 -45 50 -48 41 -63 76
-63 152 0 51 -3 65 -15 65 -11 0 -15 12 -15 46 0 45 -1 46 -27 40 -16 -3 -22
-3 -15 0 7 4 12 25 12 55 0 42 -3 49 -20 49 -17 0 -20 7 -20 45 0 25 -3 45 -7
45 -10 0 -33 49 -33 71 0 10 -5 19 -11 21 -5 2 -13 24 -16 48 -3 25 -11 48
-17 52 -7 4 -12 55 -15 128 -3 105 -1 120 13 120 10 0 16 9 16 25 0 14 7 28
15 31 8 4 15 16 15 28 0 12 11 32 25 44 14 12 25 26 25 31 0 4 17 20 38 33 44
30 112 95 112 108 0 5 9 12 20 15 11 3 20 15 20 25 0 10 9 22 20 25 11 3 20
10 20 15 0 4 18 11 40 15 29 5 40 12 40 24 0 12 19 24 68 41 37 12 76 31 88
41 11 11 30 19 42 19 12 0 22 4 22 8 0 4 34 14 76 22 42 7 99 24 126 37 27 13
89 33 139 44 49 12 89 25 89 30 0 10 470 3 505 -7z m-93 -1050 c57 -19 117
-39 135 -45 18 -5 41 -22 52 -37 34 -45 54 -62 73 -62 10 0 18 -4 18 -10 0 -5
7 -10 15 -10 10 0 15 -11 15 -35 0 -24 5 -35 15 -35 12 0 15 -17 15 -94 0 -74
-3 -95 -15 -100 -11 -4 -15 -21 -15 -58 0 -49 -3 -55 -35 -77 -19 -13 -35 -30
-35 -37 0 -8 -7 -14 -15 -14 -8 0 -15 -7 -15 -15 0 -8 -6 -15 -14 -15 -8 0
-16 -5 -18 -10 -4 -12 -104 -30 -165 -30 -31 0 -43 -4 -43 -15 0 -8 -12 -18
-26 -21 -38 -10 -162 2 -214 20 -25 8 -79 19 -121 24 -83 11 -125 29 -223 98
-43 29 -66 52 -66 65 0 10 -4 19 -10 19 -5 0 -10 11 -10 24 0 15 -7 26 -20 29
-14 3 -20 14 -20 31 0 22 4 26 30 26 20 0 30 5 30 15 0 8 9 15 20 15 11 0 20
7 20 15 0 8 -9 15 -20 15 -11 0 -20 7 -20 15 0 8 -4 15 -10 15 -5 0 -10 20
-10 45 0 25 5 45 10 45 6 0 10 14 10 31 0 22 5 32 20 36 11 3 20 12 20 19 0 8
9 14 20 14 11 0 20 7 20 15 0 10 10 15 30 15 19 0 30 5 30 14 0 8 20 19 48 26
26 7 67 22 91 32 24 11 71 24 104 28 32 5 62 12 66 15 13 14 134 -7 233 -41z
m1023 -27 c47 -2 75 -14 75 -34 0 -4 22 -24 47 -43 26 -19 66 -54 90 -77 l43
-43 0 -110 c0 -91 -3 -110 -15 -110 -10 0 -15 -10 -15 -32 0 -30 -34 -78 -54
-78 -4 0 -18 -11 -31 -25 -13 -15 -39 -28 -62 -32 -21 -3 -48 -14 -61 -24 -12
-9 -42 -20 -65 -24 -23 -3 -54 -8 -69 -11 -21 -4 -28 -2 -28 10 0 9 -7 16 -15
16 -8 0 -15 7 -15 16 0 11 -6 15 -19 11 -14 -3 -17 0 -14 14 4 16 0 19 -26 19
-18 0 -42 6 -54 12 -12 7 -60 15 -107 19 -92 6 -259 37 -275 51 -5 5 -4 8 3 8
8 0 12 19 12 55 0 42 3 55 15 55 8 0 15 7 15 15 0 8 7 15 15 15 8 0 15 7 15
15 0 8 9 15 20 15 16 0 20 7 20 30 0 23 -4 30 -20 30 -11 0 -20 7 -20 15 0 10
-10 15 -30 15 -20 0 -30 5 -30 15 0 8 -7 15 -15 15 -10 0 -15 10 -15 28 0 37
8 46 60 66 25 9 72 34 105 56 l60 38 205 -4 c113 -3 228 -6 255 -7z m100 -643
c30 -22 28 -122 -3 -163 -12 -17 -22 -38 -22 -47 0 -11 -5 -14 -16 -10 -9 3
-27 6 -40 6 -13 0 -41 15 -61 33 -21 19 -46 37 -55 40 -14 5 -18 18 -18 65 l0
59 82 6 c46 4 84 11 86 17 5 14 24 12 47 -6z m-175 -199 c0 -8 7 -15 15 -15 8
0 15 -6 15 -14 0 -8 15 -17 35 -20 19 -4 35 -11 35 -16 0 -6 15 -10 33 -10 31
0 35 -4 45 -39 8 -26 24 -47 52 -66 22 -15 40 -32 40 -37 0 -5 7 -16 15 -24 8
-9 15 -26 15 -39 0 -12 6 -25 14 -28 8 -3 17 -20 21 -38 10 -44 23 -66 63
-107 17 -19 32 -40 32 -48 0 -8 4 -14 10 -14 7 0 30 -60 30 -81 0 -6 -96 5
-129 16 -12 3 -21 10 -21 15 0 4 -41 11 -91 15 -61 5 -92 12 -96 21 -7 19
-318 20 -348 0 -12 -8 -51 -17 -88 -21 -37 -4 -67 -11 -67 -15 0 -9 -72 -26
-149 -35 -29 -3 -60 -13 -68 -21 -8 -7 -23 -14 -34 -14 -10 0 -19 -7 -19 -15
0 -10 -11 -15 -35 -15 -19 0 -35 -4 -35 -9 0 -20 -71 -40 -180 -51 -63 -7
-119 -16 -125 -20 -5 -4 -32 -11 -59 -15 -27 -4 -61 -14 -75 -21 -14 -8 -33
-14 -41 -14 -36 -1 -54 -29 -58 -90 l-4 -60 96 0 c77 0 114 5 179 26 45 15 84
31 85 35 2 5 12 9 22 9 9 0 23 7 30 15 19 23 38 18 56 -17 32 -62 48 -69 159
-66 121 2 148 -5 139 -35 -3 -12 -12 -27 -20 -33 -8 -6 -14 -23 -14 -38 0 -16
-5 -26 -15 -26 -8 0 -15 -7 -15 -15 0 -8 -7 -15 -15 -15 -8 0 -15 -7 -15 -15
0 -9 -10 -29 -22 -45 -18 -25 -29 -30 -65 -30 -32 0 -43 4 -43 15 0 12 -17 15
-92 16 -212 1 -289 6 -300 17 -7 7 -39 12 -73 12 -55 0 -119 19 -135 40 -3 4
-39 24 -80 46 -41 21 -90 53 -108 71 -18 18 -37 33 -42 33 -6 0 -10 16 -10 35
0 27 -4 35 -18 35 -37 0 -62 110 -62 276 0 121 4 144 26 144 9 0 14 12 14 35
0 28 4 35 20 35 16 0 20 7 20 30 0 20 5 30 15 30 8 0 15 5 15 10 0 6 7 10 15
10 8 0 15 7 15 15 0 8 7 15 15 15 8 0 15 9 15 20 0 16 7 20 31 20 17 0 37 7
45 15 9 8 25 15 37 15 12 0 31 7 41 15 11 8 26 15 34 15 7 0 20 7 28 15 9 8
26 15 40 15 14 0 24 6 24 14 0 16 43 26 115 26 38 0 55 4 59 15 5 13 55 15
370 15 256 0 365 3 368 11 2 6 34 13 71 16 37 3 67 9 67 13 0 4 20 13 45 20
25 7 45 17 45 21 0 5 9 9 20 9 11 0 20 -7 20 -15z m-2127 -338 c3 -8 21 -22
41 -31 36 -17 49 -46 21 -46 -8 0 -19 -9 -25 -20 -6 -11 -17 -20 -25 -20 -8 0
-15 -7 -15 -15 0 -8 -7 -15 -15 -15 -10 0 -15 -10 -15 -30 0 -20 -5 -30 -15
-30 -10 0 -15 -10 -15 -30 0 -17 -9 -39 -20 -50 -18 -18 -20 -33 -20 -190 0
-93 4 -170 8 -170 7 0 32 -177 32 -232 0 -16 5 -28 10 -28 6 0 10 -8 10 -18 0
-11 9 -29 20 -42 13 -14 20 -37 20 -62 0 -31 3 -38 20 -38 11 0 20 -6 20 -13
0 -8 9 -22 20 -32 11 -10 20 -26 20 -37 0 -11 7 -18 20 -18 13 0 20 -7 20 -20
0 -11 7 -20 15 -20 10 0 15 -10 15 -30 0 -16 5 -30 10 -30 6 0 10 -4 10 -10 0
-13 37 -50 50 -50 6 0 10 -7 10 -15 0 -8 9 -15 20 -15 11 0 20 -7 20 -15 0 -8
4 -15 8 -15 13 0 43 -30 70 -67 17 -25 22 -46 22 -93 0 -53 2 -60 20 -60 11 0
20 -7 20 -15 0 -9 9 -15 24 -15 23 0 66 -44 66 -68 0 -13 -115 -39 -202 -47
-44 -3 -68 -2 -68 5 0 5 -9 10 -20 10 -11 0 -27 11 -36 25 -9 14 -25 25 -35
25 -13 0 -19 7 -19 24 0 20 -6 25 -40 31 -22 4 -40 11 -40 16 0 5 -30 9 -67 9
-47 0 -89 8 -138 26 -45 16 -101 27 -157 31 -65 4 -88 9 -88 19 0 8 -7 14 -15
14 -10 0 -15 10 -15 30 0 19 -5 30 -14 30 -15 0 -46 52 -46 77 0 8 -11 26 -25
41 -14 15 -25 32 -25 37 0 21 -25 65 -37 65 -7 0 -13 6 -13 14 0 7 -9 16 -21
19 -18 5 -19 10 -13 44 8 46 20 63 45 63 11 0 19 7 19 16 0 22 25 44 49 44 12
0 21 5 21 11 0 15 26 39 44 39 8 0 18 5 21 10 3 6 19 10 36 10 19 0 29 5 29
15 0 8 9 15 19 15 10 0 21 7 25 15 3 8 17 15 31 15 20 0 25 5 25 25 0 16 6 25
15 25 8 0 15 7 15 15 0 8 -8 15 -19 15 -10 0 -24 7 -31 15 -7 8 -18 15 -24 15
-6 0 -22 6 -36 13 -14 7 -54 21 -89 32 -44 14 -66 26 -71 41 -5 11 -26 29 -47
38 -97 43 -122 67 -90 90 10 8 17 26 17 45 0 21 5 31 15 31 8 0 17 10 20 23 3
12 19 31 35 42 17 11 30 28 30 37 0 9 7 23 15 32 8 8 15 22 15 30 0 9 5 16 10
16 6 0 10 7 10 15 0 8 9 15 20 15 11 0 20 7 20 15 0 8 6 15 14 15 7 0 24 10
38 23 34 29 57 45 91 60 15 6 27 17 27 24 0 7 6 13 14 13 8 0 16 7 20 15 3 8
12 15 21 15 8 0 15 5 15 10 0 6 7 13 16 17 9 3 33 21 53 39 20 19 43 34 52 34
9 0 22 7 29 15 15 19 46 20 53 2z m-294 -102 c12 -12 -115 -115 -141 -115 -10
0 -18 -4 -18 -10 0 -5 -5 -10 -10 -10 -6 0 -26 -16 -44 -35 -19 -19 -40 -35
-48 -35 -39 0 -183 22 -188 29 -10 15 -102 21 -175 10 -41 -6 -90 -8 -110 -5
-44 9 -48 36 -5 36 17 0 30 5 30 10 0 6 9 10 20 10 11 0 28 9 37 20 10 11 29
20 44 20 15 0 29 7 33 15 4 10 20 15 51 15 33 0 45 4 45 15 0 12 16 15 85 15
71 0 85 3 85 16 0 14 18 15 150 12 82 -1 153 -7 159 -13z m411 -55 c0 -43 -3
-50 -20 -50 -38 0 -24 -63 41 -191 11 -20 19 -44 19 -54 0 -17 37 -77 52 -83
4 -2 10 -19 14 -38 3 -19 12 -34 20 -34 8 0 14 -4 14 -10 0 -5 32 -40 72 -77
39 -38 93 -90 120 -118 26 -27 53 -54 59 -60 5 -5 32 -31 59 -57 39 -38 57
-48 97 -53 82 -11 111 -24 133 -61 12 -19 29 -34 38 -34 27 0 43 -15 36 -33
-3 -9 -12 -17 -20 -17 -8 0 -14 -9 -14 -20 0 -11 -7 -20 -15 -20 -8 0 -15 -9
-15 -20 0 -11 -7 -20 -15 -20 -8 0 -15 -7 -15 -15 0 -8 -9 -15 -20 -15 -17 0
-20 -7 -20 -40 0 -22 -4 -40 -8 -40 -10 0 -72 -54 -72 -63 0 -4 -22 -29 -50
-57 -56 -56 -70 -59 -148 -30 -29 11 -57 18 -62 15 -5 -3 -19 9 -31 27 -13 18
-45 53 -72 78 -27 25 -61 56 -76 70 -28 27 -61 84 -61 105 0 8 -9 19 -20 25
-11 6 -20 20 -20 30 0 13 -7 20 -20 20 -11 0 -20 5 -20 11 0 6 -9 22 -20 36
-11 14 -20 39 -20 54 0 19 -5 29 -15 29 -8 0 -18 12 -21 28 -4 15 -13 36 -20
47 -10 13 -14 54 -14 132 0 94 -3 113 -15 113 -13 0 -15 23 -15 145 0 136 3
159 34 235 3 8 15 29 26 45 11 17 27 44 35 62 12 26 46 49 78 52 4 1 7 -21 7
-49z m2050 -69 c0 -5 21 -11 48 -14 126 -13 212 -31 212 -44 0 -10 19 -13 73
-13 62 0 78 -4 100 -23 15 -12 27 -28 27 -35 0 -7 14 -12 35 -12 24 0 35 -5
35 -15 0 -8 7 -15 15 -15 8 0 15 -7 15 -15 0 -8 9 -15 20 -15 11 0 20 -7 20
-15 0 -8 4 -15 9 -15 12 0 31 -56 31 -91 0 -16 5 -29 10 -29 6 0 10 -38 10
-95 0 -56 -4 -95 -10 -95 -11 0 -110 -96 -110 -107 0 -5 -9 -14 -20 -21 -11
-7 -20 -18 -20 -25 0 -7 -9 -18 -20 -25 -11 -7 -20 -18 -20 -26 0 -8 -6 -16
-14 -19 -7 -3 -16 -22 -20 -41 -4 -22 -13 -36 -21 -36 -10 0 -15 -10 -15 -29
0 -33 -81 -141 -106 -141 -8 0 -22 -4 -32 -9 -9 -5 -42 -19 -72 -31 -30 -13
-64 -26 -75 -31 -11 -4 -40 -14 -65 -20 -25 -7 -49 -16 -54 -21 -6 -4 -29 -8
-52 -8 -23 0 -44 -4 -46 -9 -1 -5 -85 -12 -184 -16 l-182 -7 -6 29 c-8 36 -51
63 -100 63 -33 0 -36 2 -36 30 0 17 -4 30 -10 30 -5 0 -10 14 -10 30 0 18 -8
37 -20 47 -13 12 -20 30 -20 55 0 27 -4 38 -15 38 -8 0 -15 9 -15 19 0 11 7
26 15 35 8 8 15 22 15 30 0 9 7 16 15 16 9 0 15 9 15 24 0 40 18 75 55 110 19
19 35 38 35 43 0 6 9 18 20 28 11 10 20 31 20 47 0 21 6 31 20 35 33 9 26 63
-13 93 -29 24 -37 25 -134 22 -88 -3 -103 -1 -103 12 0 9 -7 16 -15 16 -8 0
-15 7 -15 15 0 8 -7 15 -15 15 -8 0 -15 6 -15 14 0 8 -4 16 -9 18 -4 2 -11 12
-15 24 -5 17 0 23 34 34 22 7 47 21 56 32 10 10 27 18 38 18 12 0 39 9 61 20
22 11 45 20 51 20 7 0 19 6 26 14 8 7 45 17 83 21 39 4 75 10 80 15 6 4 29 10
52 14 35 5 46 3 63 -14 11 -11 26 -20 33 -20 34 0 147 -43 147 -56 0 -9 12
-14 35 -14 27 0 35 4 35 18 0 17 -16 26 -125 72 -11 5 -32 11 -47 14 -19 4
-28 13 -28 26 0 19 7 20 120 20 66 0 120 -4 120 -9z m-3254 -71 c8 0 14 -7 14
-16 0 -15 9 -16 75 -11 41 4 95 12 120 18 37 9 52 8 85 -5 22 -9 72 -19 111
-22 45 -5 73 -12 76 -21 3 -7 11 -13 19 -13 28 0 13 -28 -41 -78 -32 -30 -55
-60 -55 -72 0 -11 -7 -20 -15 -20 -12 0 -15 -14 -15 -70 0 -65 2 -70 21 -70
25 0 89 -37 89 -51 0 -5 7 -9 15 -9 17 0 99 -41 103 -52 2 -4 18 -8 35 -8 18
0 45 -7 61 -15 15 -8 34 -15 40 -15 23 0 36 -22 21 -36 -7 -8 -17 -14 -22 -14
-10 0 -107 -60 -145 -89 -14 -12 -31 -21 -38 -21 -13 0 -22 -7 -90 -73 -48
-46 -50 -50 -50 -103 0 -50 3 -58 35 -88 19 -19 35 -43 35 -55 0 -12 6 -21 15
-21 8 0 15 -7 15 -15 0 -8 5 -15 10 -15 6 0 10 -6 10 -13 0 -7 9 -23 20 -35
11 -12 23 -35 26 -52 4 -16 10 -30 15 -30 5 0 9 -7 9 -15 0 -11 -12 -15 -50
-15 -46 0 -53 3 -104 53 -86 83 -114 105 -146 112 -17 4 -30 10 -30 15 0 4
-12 10 -27 13 -16 2 -72 17 -126 31 -72 20 -110 26 -140 21 -66 -10 -77 -15
-77 -35 0 -17 11 -19 117 -22 82 -2 118 -7 121 -15 2 -7 20 -13 41 -13 20 0
45 -6 56 -14 11 -7 34 -17 51 -20 18 -4 39 -15 48 -25 15 -16 11 -18 -73 -29
-48 -7 -141 -12 -205 -12 -96 0 -116 -3 -116 -15 0 -11 -11 -15 -40 -15 -34 0
-40 -3 -40 -21 0 -20 4 -21 56 -17 33 3 59 11 65 19 7 11 51 14 236 14 226 0
228 0 231 -22 5 -32 49 -46 126 -38 66 7 66 7 66 -18 0 -24 3 -26 74 -32 40
-4 82 -4 92 -1 24 7 104 -14 167 -44 36 -17 59 -21 94 -17 26 3 57 1 70 -4 28
-11 30 -39 3 -46 -11 -3 -20 -9 -20 -14 0 -5 -7 -9 -15 -9 -41 0 -185 -190
-185 -244 0 -9 -4 -16 -8 -16 -12 0 -30 -58 -37 -123 -5 -39 -12 -57 -21 -57
-11 0 -14 -27 -14 -135 0 -74 3 -135 8 -135 10 0 32 -50 32 -72 0 -11 7 -18
20 -18 11 0 20 -6 20 -14 0 -11 -19 -16 -72 -20 -162 -12 -208 -13 -208 -5 0
14 -119 10 -143 -5 -12 -7 -42 -17 -67 -20 -24 -4 -50 -12 -57 -18 -7 -6 -23
-8 -35 -4 -13 3 -122 13 -242 21 -121 8 -222 19 -225 24 -3 4 -27 11 -53 15
-27 4 -48 11 -48 15 0 5 -23 11 -52 13 -29 3 -54 11 -56 17 -2 6 -28 11 -63
11 -32 0 -59 4 -59 9 0 4 -18 11 -40 14 -22 3 -47 12 -55 21 -9 9 -25 16 -35
16 -10 0 -22 4 -25 10 -3 5 -24 14 -45 20 -22 6 -40 15 -40 20 0 6 -9 10 -20
10 -11 0 -20 7 -20 15 0 8 -7 15 -15 15 -8 0 -15 7 -15 15 0 10 -10 15 -30 15
-20 0 -30 5 -30 15 0 8 -7 15 -15 15 -8 0 -15 7 -15 15 0 8 -9 15 -20 15 -11
0 -20 7 -20 15 0 8 -7 15 -15 15 -10 0 -15 10 -15 30 0 23 -4 30 -20 30 -13 0
-20 7 -20 19 0 10 -9 21 -20 24 -16 4 -20 14 -20 46 0 28 -4 41 -14 41 -20 0
-26 23 -26 106 0 43 -4 74 -10 74 -5 0 -10 14 -10 30 0 17 -4 30 -10 30 -6 0
-10 35 -10 85 0 78 2 85 20 85 17 0 20 7 20 41 0 32 4 42 20 46 16 4 20 14 20
44 0 21 9 54 20 74 11 20 20 40 20 46 0 6 9 22 20 36 13 17 20 41 20 69 0 32
4 44 15 44 11 0 15 11 15 39 0 49 8 71 26 71 8 0 14 7 14 15 0 8 7 15 15 15 8
0 15 8 15 19 0 10 9 30 20 44 11 14 20 32 20 40 0 8 11 26 25 41 14 15 25 33
25 41 0 8 29 44 64 79 35 36 66 69 68 73 13 29 52 83 59 83 5 0 9 7 9 15 0 8
9 15 20 15 13 0 20 7 20 20 0 13 7 20 20 20 11 0 20 7 20 15 0 8 7 15 15 15 8
0 15 4 15 8 0 13 41 56 70 73 14 9 53 24 88 34 34 10 62 24 62 29 0 14 55 66
69 66 6 0 11 8 12 18 0 18 102 76 107 61 2 -5 10 -9 18 -9z m2364 -158 c0 -24
-6 -29 -62 -49 -35 -12 -71 -25 -80 -28 -15 -6 -18 -1 -18 34 0 30 4 41 15 41
8 0 15 4 15 9 0 10 34 16 98 19 29 2 32 -1 32 -26z m-190 -51 c0 -48 0 -48
-37 -55 -21 -3 -59 -6 -85 -6 -47 0 -48 1 -48 30 0 20 5 30 15 30 8 0 15 4 15
9 0 8 93 35 133 40 4 1 7 -21 7 -48z m1740 -365 c0 -9 3 -16 8 -16 4 0 31 -23
61 -50 29 -28 59 -50 67 -50 7 0 25 -17 40 -37 35 -48 114 -123 129 -123 6 0
18 -12 26 -27 8 -16 20 -32 26 -36 7 -4 13 -19 13 -32 0 -18 5 -25 20 -25 16
0 20 -7 20 -30 0 -20 5 -30 15 -30 10 0 15 -10 15 -30 0 -20 5 -30 15 -30 8 0
17 -14 21 -34 3 -19 12 -37 20 -40 9 -3 14 -20 14 -46 0 -27 4 -40 14 -40 19
0 47 -82 57 -170 10 -94 17 -126 36 -169 11 -25 13 -50 8 -99 -8 -79 -13 -92
-31 -92 -9 0 -14 -11 -14 -30 0 -20 -5 -30 -15 -30 -8 0 -15 -9 -15 -20 0 -11
-7 -20 -15 -20 -9 0 -29 -14 -45 -30 -16 -17 -34 -30 -40 -30 -5 0 -10 -7 -10
-15 0 -8 -6 -15 -14 -15 -8 0 -17 -11 -20 -24 -3 -14 -19 -29 -38 -37 -18 -7
-55 -30 -83 -51 -27 -21 -56 -38 -62 -38 -7 0 -13 -7 -13 -15 0 -10 -10 -15
-34 -15 -25 0 -35 -5 -39 -20 -4 -15 -14 -20 -36 -20 -17 0 -31 -4 -31 -10 0
-5 -16 -10 -35 -10 -19 0 -35 -4 -35 -10 0 -6 -78 -10 -215 -10 -137 0 -215 4
-215 10 0 6 -10 10 -23 10 -21 0 -65 24 -77 42 -3 4 -37 19 -75 33 -64 24
-123 53 -135 65 -3 3 -27 23 -55 45 -27 21 -54 45 -58 52 -4 7 -13 13 -20 13
-17 0 -114 95 -122 119 -3 12 -9 21 -13 21 -4 0 -25 16 -47 36 -22 20 -50 43
-62 51 -13 9 -23 22 -23 29 0 8 -4 14 -8 14 -12 0 -32 46 -32 71 0 11 -8 32
-17 46 -25 37 -45 115 -50 196 -3 37 -9 67 -14 67 -5 0 -9 7 -9 15 0 8 5 15
10 15 6 0 10 7 10 15 0 10 11 15 35 15 23 0 35 -5 35 -14 0 -10 31 -15 138
-20 131 -7 156 -5 312 24 25 5 64 9 88 9 45 1 101 24 115 47 4 8 17 14 28 14
11 0 27 7 35 15 9 8 26 15 40 15 15 0 24 6 24 15 0 9 11 20 24 25 13 5 27 13
30 18 3 5 27 15 53 22 70 17 91 30 97 56 4 13 13 24 20 24 8 0 16 5 18 12 7
20 58 0 58 -22 0 -13 7 -20 20 -20 11 0 20 -7 20 -15 0 -8 7 -15 15 -15 8 0
15 -7 15 -15 0 -8 7 -15 15 -15 8 0 15 -6 15 -14 0 -7 9 -16 20 -19 15 -4 20
-14 20 -36 0 -21 5 -31 15 -31 8 0 15 -6 15 -14 0 -7 8 -16 18 -18 9 -3 26
-24 37 -46 11 -23 23 -42 28 -42 4 0 7 -6 7 -14 0 -17 92 -116 108 -116 22 0
12 29 -23 66 -19 19 -35 42 -35 49 0 7 -7 15 -15 19 -25 9 -17 26 13 26 61 -1
132 -57 132 -105 0 -7 7 -15 15 -19 8 -3 15 -12 15 -21 0 -8 9 -15 20 -15 12
0 20 7 20 17 0 21 -57 110 -75 117 -8 3 -15 12 -15 19 0 18 -39 35 -93 43 -78
10 -87 14 -87 34 0 11 -7 20 -15 20 -8 0 -15 5 -15 11 0 14 -90 129 -101 129
-5 0 -9 7 -9 15 0 8 -4 15 -8 15 -4 0 -27 17 -51 39 -28 25 -56 41 -81 45 -21
3 -45 13 -54 21 -8 8 -19 15 -25 15 -17 0 -14 106 4 124 8 8 15 26 15 40 0 19
5 26 20 26 13 0 20 7 20 20 0 11 7 20 15 20 8 0 15 7 15 15 0 8 7 15 15 15 8
0 15 7 15 15 0 8 9 15 20 15 15 0 20 7 20 25 0 16 6 25 15 25 8 0 15 7 15 16
0 14 2 14 15 0 8 -8 15 -22 15 -30z m-1416 -198 c8 -39 46 -98 64 -98 13 0 19
-83 14 -190 -2 -48 -7 -59 -39 -92 -21 -21 -42 -38 -49 -38 -6 0 -14 -8 -16
-18 -4 -15 -20 -21 -84 -28 -101 -11 -308 -8 -312 6 -2 5 -12 10 -23 10 -10 0
-19 7 -19 15 0 8 -6 15 -12 15 -20 1 -58 36 -58 54 0 9 -8 16 -20 16 -11 0
-20 7 -20 15 0 8 -7 15 -15 15 -8 0 -15 6 -15 14 0 8 -7 16 -15 20 -31 12 -17
56 34 104 27 26 52 59 55 74 3 15 13 33 21 42 8 8 15 19 15 25 0 6 6 11 14 11
8 0 16 5 18 10 2 6 35 15 73 21 39 5 84 13 100 18 17 5 87 10 156 10 l127 1 6
-32z m1194 -166 c28 -18 28 -32 -1 -65 -14 -17 -33 -27 -50 -27 -15 0 -35 -4
-45 -10 -9 -5 -61 -34 -115 -65 -54 -30 -107 -55 -117 -55 -11 0 -20 -6 -20
-14 0 -9 -21 -15 -72 -19 -40 -4 -74 -11 -76 -17 -2 -5 -19 -10 -38 -10 -20 0
-44 -5 -54 -10 -41 -22 -168 -24 -251 -4 -43 10 -79 22 -79 25 0 4 -19 10 -41
14 l-41 7 26 25 c30 28 29 27 321 42 132 6 169 12 210 30 27 12 69 25 92 28
24 3 43 10 43 14 0 5 6 9 13 9 7 0 28 8 47 19 19 10 50 22 68 26 18 4 53 24
78 46 46 39 55 41 102 11z m-998 -112 c0 -5 9 -10 20 -10 11 0 20 -7 20 -15 0
-10 -11 -15 -35 -15 -33 0 -35 -2 -35 -35 0 -24 -5 -35 -15 -35 -8 0 -15 -7
-15 -16 0 -9 -6 -14 -12 -11 -17 6 -14 112 4 131 15 17 68 21 68 6z m-846 -26
c9 -8 16 -22 16 -30 0 -8 7 -14 15 -14 8 0 15 -9 15 -20 0 -11 7 -20 15 -20 8
0 15 -7 15 -15 0 -8 9 -15 20 -15 11 0 20 -7 20 -15 0 -8 7 -15 15 -15 9 0 18
-7 21 -15 4 -8 12 -15 20 -15 19 0 18 -36 -2 -44 -9 -3 -38 -6 -64 -6 -27 0
-51 -4 -54 -8 -3 -5 -30 -15 -61 -22 -30 -7 -60 -19 -66 -27 -6 -7 -27 -13
-45 -13 -24 0 -34 -5 -34 -15 0 -10 -11 -15 -35 -15 -24 0 -35 5 -35 15 0 8
-7 15 -15 15 -8 0 -19 8 -24 19 -6 10 -26 37 -46 60 -44 53 -45 71 -5 71 20 0
30 -5 30 -15 0 -10 10 -15 30 -15 20 0 30 -5 30 -15 0 -8 9 -15 20 -15 11 0
20 7 20 15 0 10 10 15 30 15 27 0 30 3 30 30 0 20 5 30 15 30 10 0 15 11 15
35 0 24 5 35 15 35 8 0 15 5 15 12 0 12 30 46 42 47 4 1 14 -6 22 -15z m739
-134 c9 -11 24 -20 32 -20 20 0 19 -17 -1 -37 -12 -13 -14 -28 -9 -77 4 -34
11 -69 16 -78 5 -9 9 -30 9 -47 0 -16 5 -31 11 -33 6 -2 13 -32 16 -66 4 -43
10 -62 19 -62 9 0 14 -11 14 -30 0 -25 -4 -30 -23 -30 -13 0 -33 13 -47 30
-14 16 -31 29 -37 30 -8 0 -13 13 -13 30 0 20 -5 30 -15 30 -8 0 -15 7 -15 15
0 10 -10 15 -30 15 -16 0 -30 2 -30 4 0 2 -3 11 -6 20 -4 11 -1 16 10 16 9 0
16 7 16 15 0 8 9 15 20 15 17 0 20 7 20 39 0 30 -4 40 -20 44 -17 4 -20 14
-20 55 0 36 -4 52 -16 56 -24 9 -6 26 27 26 26 0 29 3 29 30 0 35 18 39 43 10z
m-415 -98 c4 -23 35 -62 50 -62 7 0 67 -49 131 -107 20 -18 40 -33 44 -33 8 0
20 -10 117 -99 25 -22 48 -41 52 -41 5 0 8 -6 8 -13 0 -7 9 -18 21 -25 14 -9
18 -19 14 -32 -4 -11 -3 -25 1 -31 4 -7 9 -43 11 -81 4 -64 3 -69 -19 -77 -39
-14 -127 25 -128 57 0 6 -7 12 -15 12 -8 0 -15 7 -15 15 0 8 -6 15 -14 15 -7
0 -22 12 -32 27 -30 47 -57 69 -103 83 -24 8 -48 22 -55 32 -12 20 -31 24 -41
7 -7 -10 39 -59 56 -59 5 0 9 -7 9 -15 0 -10 11 -15 35 -15 24 0 35 -5 35 -15
0 -8 7 -15 15 -15 8 0 15 -6 15 -14 0 -8 3 -16 8 -18 4 -1 20 -20 35 -41 16
-20 44 -44 63 -52 19 -8 34 -18 34 -24 0 -5 16 -15 35 -22 l35 -13 0 -93 c0
-68 -3 -93 -12 -93 -7 0 -26 -14 -42 -30 -16 -17 -35 -30 -42 -30 -6 0 -14 -7
-18 -15 -4 -10 -20 -15 -51 -15 l-45 0 0 40 c0 54 -50 129 -86 130 -6 0 -17 6
-23 14 -7 8 -31 24 -54 36 -23 12 -47 27 -52 35 -10 12 -35 19 -62 16 -27 -2
-11 -29 27 -47 22 -10 40 -22 40 -26 0 -3 17 -12 38 -19 20 -6 47 -23 59 -35
12 -13 25 -24 29 -24 3 0 17 -10 30 -22 18 -18 24 -34 24 -71 0 -33 -5 -49
-15 -53 -8 -4 -15 -11 -15 -18 0 -17 -70 -71 -109 -84 -19 -7 -53 -12 -77 -12
-51 0 -145 18 -158 31 -6 5 -24 9 -42 9 -52 0 -94 12 -94 26 0 10 14 14 50 14
38 0 50 4 50 15 0 13 -38 15 -279 15 -235 0 -280 2 -291 15 -7 8 -23 15 -37
15 -13 0 -37 7 -53 15 -16 9 -49 18 -73 21 l-43 6 -12 57 c-17 82 -15 260 3
291 20 35 23 41 29 73 4 15 13 27 21 27 9 0 15 10 15 25 0 14 7 28 15 31 8 3
24 26 36 50 21 45 73 104 90 104 5 0 9 9 9 20 0 19 7 20 105 20 87 0 105 3
105 15 0 11 11 15 40 15 48 0 132 27 143 46 4 8 13 14 18 14 6 0 17 7 25 15 8
8 31 17 52 20 20 4 49 13 64 21 16 8 54 14 97 14 l71 0 0 31 c0 30 1 30 48 27
41 -3 47 -6 50 -26z m272 13 c0 -8 5 -15 10 -15 6 0 10 -11 10 -24 0 -14 4
-36 10 -50 10 -27 4 -56 -12 -56 -5 0 -16 -7 -24 -15 -9 -8 -20 -15 -25 -15
-5 0 -9 7 -9 15 0 8 -9 15 -20 15 -13 0 -20 7 -20 20 0 11 -7 20 -15 20 -8 0
-15 7 -15 15 0 9 -9 15 -24 15 -14 0 -31 7 -40 15 -8 8 -18 15 -22 15 -8 0
-33 31 -34 42 0 7 59 13 168 16 49 2 62 -1 62 -13z m-1196 -160 c3 -8 17 -20
31 -27 14 -6 25 -15 25 -20 0 -13 -26 -38 -39 -38 -6 0 -11 -7 -11 -15 0 -8
-4 -15 -10 -15 -5 0 -10 -13 -10 -30 0 -20 -5 -30 -15 -30 -8 0 -15 -9 -15
-19 0 -11 -8 -26 -18 -33 -10 -7 -22 -25 -26 -40 -3 -16 -13 -28 -21 -28 -10
0 -15 -10 -15 -29 0 -40 -9 -61 -27 -61 -12 0 -14 -29 -13 -187 1 -104 1 -200
1 -215 -1 -27 -3 -28 -59 -28 -57 0 -57 0 -80 43 -12 23 -22 50 -22 60 0 9 -4
17 -9 17 -16 0 -27 82 -23 178 3 70 7 92 18 92 11 0 14 16 14 65 0 48 4 65 14
65 8 0 16 16 19 42 3 24 11 44 16 46 6 2 11 12 11 23 0 10 9 24 20 31 11 7 20
18 20 25 0 7 7 13 15 13 8 0 15 7 15 15 0 8 7 15 15 15 8 0 15 9 15 20 0 13 7
20 20 20 11 0 20 7 20 15 0 11 11 15 40 15 29 0 40 4 40 15 0 20 36 19 44 0z
m1507 -295 c10 0 19 -7 19 -15 0 -8 6 -15 13 -15 13 0 43 -30 69 -70 9 -14 28
-38 41 -53 28 -31 26 -67 -4 -67 -11 0 -19 -7 -19 -15 0 -8 -7 -15 -15 -15 -8
0 -15 -4 -15 -10 0 -5 -7 -10 -15 -10 -8 0 -15 -4 -15 -10 0 -5 -12 -10 -27
-10 -47 0 -148 -24 -156 -37 -18 -29 -27 -9 -27 57 0 61 2 70 18 70 28 0 42
42 42 125 0 68 2 75 20 75 10 0 25 6 32 14 11 12 13 12 16 0 2 -8 12 -14 23
-14z"/>
</g>
</svg>
