<?xml version="1.0" standalone="no"?>
<!DOCTYPE svg PUBLIC "-//W3C//DTD SVG 20010904//EN"
 "http://www.w3.org/TR/2001/REC-SVG-20010904/DTD/svg10.dtd">
<svg version="1.0" xmlns="http://www.w3.org/2000/svg"
 width="200.000000pt" height="185.000000pt" viewBox="0 0 200.000000 185.000000"
 preserveAspectRatio="xMidYMid meet">

<g transform="translate(0.000000,185.000000) scale(0.100000,-0.100000)"
fill="#000000" stroke="none">
<path d="M945 1727 c-27 -13 -63 -27 -79 -31 -36 -9 -96 -67 -96 -92 1 -12 6
-7 15 13 19 45 107 99 91 56 -4 -10 3 -6 17 9 22 23 30 26 68 21 24 -3 46 -10
47 -14 2 -5 38 -9 80 -9 48 0 96 -7 127 -17 67 -24 135 -94 165 -170 13 -32
36 -72 52 -88 47 -51 39 -61 -49 -61 -64 0 -85 -4 -115 -22 l-37 -23 -40 27
c-161 106 -378 -78 -229 -195 61 -48 183 -51 237 -5 23 19 40 24 87 24 77 0
108 -16 112 -56 2 -23 -2 -34 -15 -39 -10 -4 -81 -11 -159 -15 -129 -6 -145
-9 -194 -36 -75 -40 -100 -80 -100 -159 0 -49 5 -68 22 -91 49 -63 99 -84 202
-84 36 0 60 -5 70 -16 9 -8 16 -11 16 -4 0 6 12 29 27 51 21 32 24 42 13 52
-10 9 -11 9 -6 -1 4 -7 -2 -28 -14 -47 -20 -32 -25 -35 -58 -30 -20 2 -63 7
-95 10 -71 7 -108 24 -141 68 -21 28 -26 45 -26 93 0 77 23 115 92 150 47 24
68 28 193 34 77 3 150 12 162 18 33 18 98 -25 124 -81 10 -23 26 -51 34 -61
34 -45 8 -59 -58 -31 -20 8 -44 15 -54 14 -21 -1 84 -38 109 -39 9 0 33 -15
52 -34 48 -45 50 -99 6 -150 -17 -18 -37 -50 -45 -71 -12 -28 -27 -42 -68 -61
-29 -13 -45 -24 -37 -24 8 0 35 11 58 25 41 23 62 25 62 5 0 -13 -81 -57 -139
-74 -59 -17 -138 -21 -160 -7 -27 17 1 31 62 32 34 0 71 4 82 8 12 5 -9 7 -50
4 -59 -3 -74 -1 -93 16 -27 24 -55 87 -46 104 5 9 4 9 -5 1 -10 -9 -9 -20 4
-50 17 -42 13 -78 -12 -106 -12 -13 -32 -18 -73 -18 -52 0 -61 3 -89 32 -17
17 -31 37 -31 44 0 18 40 65 64 74 20 8 20 9 -3 9 -31 1 -127 61 -173 108 -40
41 -92 147 -82 166 5 9 4 9 -6 0 -10 -9 -7 -23 14 -70 32 -70 90 -132 169
-180 l58 -35 -21 -23 c-12 -12 -32 -42 -45 -66 -29 -55 -52 -60 -100 -18 -84
74 -118 155 -119 287 -1 71 3 93 18 117 11 17 21 24 24 17 7 -21 17 -13 17 13
0 16 -6 25 -15 25 -27 0 -60 30 -60 55 0 15 11 31 29 44 25 18 30 19 47 6 10
-8 23 -15 29 -15 5 0 -7 11 -28 25 -22 16 -37 34 -37 46 0 11 5 17 10 14 6 -4
10 14 10 46 l0 52 31 -46 c17 -26 36 -47 42 -47 8 0 9 3 1 8 -6 4 -26 30 -45
57 l-34 50 -3 -52 c-2 -30 -8 -53 -14 -53 -16 0 -37 32 -38 56 0 11 -13 60
-30 109 -35 104 -37 132 -10 185 21 41 117 130 153 142 68 22 130 47 117 47
-8 0 -33 -7 -55 -15 -22 -8 -48 -17 -57 -19 -41 -9 -138 -100 -170 -159 -24
-44 -22 -78 12 -185 17 -52 29 -99 28 -105 -2 -6 7 -25 18 -41 12 -17 25 -44
28 -62 6 -26 4 -32 -13 -38 -25 -8 -37 -48 -23 -79 15 -33 -16 -48 -107 -50
-58 -2 -90 -8 -133 -28 -67 -31 -177 -117 -236 -183 -40 -46 -94 -145 -106
-195 l-6 -25 11 25 c58 124 75 154 109 193 53 60 167 149 175 137 3 -6 14 -9
23 -9 15 1 15 2 0 6 -30 8 -20 19 33 42 52 23 190 41 188 25 0 -5 -18 -24 -39
-42 -36 -31 -41 -33 -77 -23 -21 6 -49 10 -63 10 -14 -1 -2 -6 25 -11 65 -12
72 -20 46 -56 -32 -45 -27 -58 37 -88 31 -16 60 -32 63 -37 4 -5 9 -5 13 1 3
5 -19 20 -49 32 -78 32 -82 40 -51 94 26 45 147 156 169 156 7 0 18 -4 25 -8
9 -7 8 -13 -7 -26 -33 -30 -44 -81 -37 -165 4 -42 12 -92 19 -111 14 -43 56
-107 91 -139 14 -14 26 -34 26 -47 0 -12 10 -28 22 -36 12 -8 18 -19 14 -26
-15 -24 -98 -9 -118 22 -6 8 -8 8 -8 -1 0 -6 -13 -25 -29 -41 -51 -51 -74
-175 -46 -245 7 -16 1 -18 -56 -18 -35 0 -100 -1 -144 -1 -55 0 -102 6 -149
21 -38 12 -71 19 -73 17 -3 -3 26 -14 64 -25 78 -23 203 -37 230 -26 10 4 52
9 94 9 44 1 83 7 92 14 8 7 23 10 33 6 18 -5 18 -5 1 6 -14 9 -22 9 -30 1 -19
-19 -47 -12 -57 15 -24 63 3 178 51 218 34 29 38 30 59 15 12 -8 12 -12 2 -16
-12 -5 -52 -75 -52 -90 1 -4 8 6 17 22 24 45 54 75 77 75 12 0 48 12 81 26 49
21 43 28 -7 9 -15 -6 -66 41 -56 51 4 3 15 1 26 -5 16 -9 24 -7 36 5 9 8 16
18 16 22 0 4 4 13 9 21 7 11 15 6 40 -20 35 -40 37 -46 14 -52 -14 -4 -12 -5
5 -6 12 0 22 4 22 9 0 14 17 12 38 -5 103 -87 128 -115 130 -149 3 -48 -11
-52 -55 -14 -62 55 -82 65 -28 15 28 -25 53 -46 58 -47 15 0 7 -67 -11 -83
-23 -21 -42 -22 -42 -3 0 15 -67 76 -84 76 -5 0 10 -14 32 -30 47 -34 53 -59
22 -90 -22 -22 -64 -26 -107 -9 -26 10 -27 12 -8 19 12 5 -20 8 -80 7 -87 -1
-91 -1 -26 -4 51 -3 78 -9 85 -19 6 -8 34 -17 63 -20 46 -6 54 -4 78 20 14 14
31 26 37 26 6 0 29 17 51 37 23 20 34 34 24 30 -13 -5 -17 -1 -17 18 0 13 5
27 10 30 6 3 10 19 10 36 0 37 9 37 49 -5 l32 -33 -31 -27 c-17 -14 -27 -26
-23 -26 5 0 20 11 33 25 l23 24 34 -29 c97 -86 202 -103 302 -50 58 31 123 98
141 145 24 62 -48 242 -132 331 -51 54 -53 58 -50 105 4 46 1 52 -34 87 -21
20 -38 47 -39 59 0 12 -8 30 -16 40 -9 10 -21 32 -28 50 -7 17 -21 39 -32 49
-14 13 -16 21 -8 36 6 10 8 24 5 31 -3 8 -5 6 -5 -3 -1 -8 -5 -21 -10 -29 -8
-12 -13 -12 -35 3 -35 22 -33 49 4 63 25 9 32 9 41 -5 9 -15 10 -15 5 1 -4 12
3 30 19 49 36 43 34 95 -5 133 -18 17 -30 39 -30 54 0 14 -13 39 -28 56 -16
16 -39 56 -52 89 -31 78 -107 155 -177 180 -29 10 -53 22 -53 27 0 10 -73 49
-92 49 -7 -1 8 -10 35 -22 26 -11 47 -24 47 -29 0 -12 -127 -11 -135 1 -3 6
-22 10 -42 10 -46 0 -37 9 24 26 31 8 39 13 23 13 -14 1 -47 -10 -75 -22z
m201 -390 c64 -25 86 -50 91 -103 5 -43 2 -54 -22 -82 -63 -75 -216 -65 -276
19 -20 28 -21 32 -6 41 13 7 14 12 5 27 -16 27 9 63 64 90 47 23 96 26 144 8z
m340 -38 c45 -44 47 -97 5 -139 -38 -39 -76 -48 -102 -24 -14 12 -41 19 -85
22 -60 4 -64 6 -58 26 3 11 14 29 23 40 15 17 15 19 -6 33 -30 20 -29 37 5 54
50 25 67 28 126 24 50 -3 63 -8 92 -36z m270 -784 c19 -39 41 -98 49 -133 18
-74 9 -104 -48 -164 -86 -91 -202 -113 -308 -57 -111 59 -180 151 -191 254
l-3 30 60 -3 c73 -4 164 22 230 67 l47 31 19 -22 c10 -13 35 -47 54 -75 20
-29 38 -53 41 -53 2 0 -3 11 -12 25 -14 22 -14 25 -1 25 8 0 25 -12 37 -27 12
-16 18 -21 14 -13 -13 27 -37 50 -53 50 -9 1 -34 23 -56 50 -22 28 -45 50 -52
50 -34 0 -27 52 13 100 l27 31 49 -48 c28 -27 64 -78 84 -118z m-483 -1 c3 -3
-2 -14 -11 -24 -20 -25 -22 -52 -6 -120 7 -30 10 -57 8 -59 -3 -3 -18 9 -34
27 -16 17 -24 34 -19 37 5 4 9 12 9 18 0 7 -4 6 -10 -3 -8 -12 -13 -13 -27 -2
-10 6 -28 17 -40 24 -33 16 -28 28 12 28 21 0 38 -6 45 -17 10 -16 11 -16 7 3
-3 13 3 27 14 35 11 7 19 21 19 30 0 24 18 37 33 23z"/>
<path d="M721 1143 c1 -62 6 -56 11 15 2 23 0 42 -4 42 -5 0 -7 -26 -7 -57z"/>
<path d="M1330 874 c-28 -11 -30 -13 -7 -9 15 3 27 2 27 -3 0 -8 61 -34 67
-28 2 2 -10 9 -27 16 -37 15 -38 27 -2 33 25 4 25 4 2 5 -14 0 -41 -6 -60 -14z"/>
<path d="M1225 843 c-16 -9 -52 -20 -79 -24 -55 -9 -96 -32 -96 -54 0 -8 4
-15 10 -15 5 0 7 6 4 14 -3 8 3 19 15 25 27 15 31 14 31 -9 0 -12 -7 -20 -17
-20 -9 0 -14 -2 -11 -5 3 -4 18 -3 33 1 18 4 23 9 14 14 -18 11 -3 40 21 40
22 0 28 -25 8 -34 -7 -3 -4 -4 8 -1 12 3 27 -1 34 -10 7 -8 24 -14 39 -14 l26
2 -25 4 c-26 5 -60 30 -60 45 0 5 24 20 53 33 28 14 45 25 37 25 -8 -1 -28 -8
-45 -17z"/>
<path d="M636 625 c-25 -20 -46 -40 -46 -46 0 -5 11 1 24 14 13 13 36 33 52
45 16 12 26 22 23 22 -3 0 -27 -16 -53 -35z"/>
<path d="M1133 613 c15 -2 37 -2 50 0 12 2 0 4 -28 4 -27 0 -38 -2 -22 -4z"/>
<path d="M600 555 c0 -4 12 -26 26 -51 24 -40 24 -44 7 -45 -27 -1 26 -17 57
-17 22 1 22 1 3 5 -20 4 -73 71 -73 92 0 5 -4 13 -10 16 -5 3 -10 3 -10 0z"/>
<path d="M503 516 c88 -19 95 -36 17 -36 -36 0 -70 -4 -77 -8 -6 -4 29 -7 77
-7 l89 0 -21 23 c-23 23 -77 42 -118 41 -14 0 1 -6 33 -13z"/>
<path d="M151 438 c-10 -40 -10 -67 -2 -112 14 -75 42 -120 95 -151 60 -35 69
-31 13 6 -63 41 -86 76 -99 149 -8 46 -7 72 2 106 7 24 11 47 8 49 -3 3 -10
-19 -17 -47z"/>
<path d="M763 423 c9 -2 23 -2 30 0 6 3 -1 5 -18 5 -16 0 -22 -2 -12 -5z"/>
<path d="M793 205 c0 -33 2 -45 4 -27 2 18 2 45 0 60 -2 15 -4 0 -4 -33z"/>
</g>
</svg>
