<?xml version="1.0" standalone="no"?>
<!DOCTYPE svg PUBLIC "-//W3C//DTD SVG 20010904//EN"
 "http://www.w3.org/TR/2001/REC-SVG-20010904/DTD/svg10.dtd">
<svg version="1.0" xmlns="http://www.w3.org/2000/svg"
 width="600.000000pt" height="490.000000pt" viewBox="0 0 600.000000 490.000000"
 preserveAspectRatio="xMidYMid meet">
<metadata>
Created by potrace 1.16, written by Peter Selinger 2001-2019
</metadata>
<g transform="translate(0.000000,490.000000) scale(0.100000,-0.100000)"
fill="#000000" stroke="none">
<path d="M2117 4856 c11 -69 -38 -78 -362 -66 -68 2 -108 -1 -123 -9 -45 -24
-33 -3 17 30 28 18 51 33 51 34 0 1 -24 -2 -52 -7 -67 -12 -129 -39 -178 -78
-41 -33 -97 -56 -107 -46 -4 3 8 21 25 39 18 18 32 35 32 38 0 3 -44 -16 -97
-42 -54 -26 -99 -46 -101 -44 -2 1 18 20 44 41 57 46 96 86 90 91 -2 2 -30 -9
-62 -25 -33 -16 -85 -42 -116 -57 -59 -28 -128 -93 -128 -120 0 -18 -16 -20
-27 -2 -4 6 -10 30 -13 52 l-6 40 -22 -35 c-26 -42 -29 -101 -6 -135 l16 -25
-43 0 c-56 0 -124 -33 -216 -102 -58 -45 -86 -59 -155 -77 -165 -44 -185 -51
-211 -77 -36 -35 -42 -80 -23 -148 13 -44 21 -56 37 -56 37 0 59 19 59 50 0
17 5 30 10 30 16 0 12 -53 -6 -78 -8 -12 -26 -22 -40 -22 -30 0 -30 -2 5 -53
56 -81 102 -105 206 -107 64 -2 83 -16 21 -16 -48 0 -60 -4 -83 -27 -25 -24
-28 -36 -33 -121 -4 -77 -9 -100 -28 -125 l-23 -31 25 0 c17 0 35 13 57 40 18
22 34 38 36 36 2 -2 -12 -37 -32 -77 l-37 -74 37 35 c20 19 53 57 72 83 34 46
36 47 54 31 11 -9 19 -24 19 -32 0 -8 6 -12 14 -9 9 4 17 -2 21 -14 6 -18 10
-15 34 23 32 50 100 104 143 113 33 8 84 -10 92 -32 14 -36 -43 -97 -141 -149
l-48 -25 83 5 c76 5 82 4 73 -12 -12 -23 -49 -56 -86 -76 l-30 -17 27 4 c26 4
26 3 11 -20 -18 -28 -109 -83 -136 -83 -10 0 -15 -4 -12 -10 11 -18 75 -10
125 15 63 32 70 31 38 -2 -40 -43 -60 -91 -65 -157 -3 -34 -11 -78 -19 -99 -8
-20 -14 -47 -14 -59 0 -20 3 -19 34 11 l34 33 -13 -38 c-8 -22 -14 -60 -15
-85 0 -26 -7 -66 -15 -89 -8 -23 -15 -66 -15 -94 0 -56 16 -126 29 -126 4 0
27 23 51 51 23 27 44 49 45 47 2 -2 -1 -25 -6 -52 -5 -26 -6 -60 -2 -74 6 -25
6 -25 25 11 16 32 44 57 63 57 3 0 1 -8 -4 -17 -21 -41 -33 -138 -22 -181 10
-35 34 -62 54 -62 3 0 13 34 22 75 9 41 18 75 20 75 1 0 3 -40 3 -89 0 -103
21 -189 83 -344 22 -56 59 -153 80 -216 22 -62 54 -141 71 -174 68 -136 81
-184 80 -297 -1 -156 -41 -302 -128 -468 -37 -70 -75 -139 -85 -153 -29 -42
-69 -53 -162 -46 -67 6 -89 4 -116 -11 -74 -37 -95 -115 -52 -188 12 -20 21
-38 19 -39 -2 -1 -51 -14 -111 -29 -229 -56 -608 -187 -717 -248 -41 -23 -35
-21 135 26 236 66 571 134 835 171 63 8 125 18 138 21 22 4 23 2 20 -47 l-3
-52 -160 -42 c-255 -68 -471 -145 -713 -252 -56 -25 -101 -47 -99 -50 2 -2 34
8 71 22 98 37 337 107 521 153 521 131 978 196 1553 222 514 23 1150 -36 1616
-151 44 -10 81 -17 84 -14 3 3 2 5 -1 5 -4 0 -55 14 -114 31 -202 59 -598 138
-776 155 -45 5 -71 12 -74 21 -3 8 -3 17 1 20 9 10 611 -53 694 -72 21 -5 22
-3 22 63 l0 68 -117 22 c-65 12 -153 27 -195 33 l-78 11 48 53 c37 40 60 80
97 171 26 66 60 136 73 157 26 39 95 87 127 87 14 0 15 3 6 14 -10 12 -8 15
11 18 22 3 22 4 -7 20 -28 16 -28 17 -7 18 44 0 12 18 -55 30 -126 23 -173 52
-173 107 0 70 60 133 127 133 34 0 53 -19 108 -107 16 -26 61 -81 100 -122
156 -164 301 -219 429 -163 27 12 50 22 52 22 2 0 -3 -15 -11 -33 -8 -19 -21
-75 -29 -125 -22 -142 -47 -168 -196 -212 -111 -33 -161 -91 -130 -151 13 -23
7 -24 -75 -4 -33 8 -63 15 -67 15 -5 0 -8 -29 -8 -65 0 -59 2 -65 23 -70 12
-2 108 -18 212 -35 391 -63 989 -196 1241 -275 17 -6 17 -5 2 5 -52 33 -816
290 -863 290 -8 0 -15 5 -15 10 0 6 6 10 14 10 8 0 31 16 52 35 27 26 46 35
72 35 l35 0 -7 40 c-3 22 -9 58 -12 80 l-7 41 27 -11 c43 -16 47 -12 31 27 -8
20 -13 38 -11 41 3 2 19 -6 35 -18 30 -21 31 -21 31 -2 0 11 -16 43 -36 72
-56 82 -65 112 -71 246 -7 140 -8 138 72 109 22 -8 41 -15 42 -15 7 0 -21 58
-34 72 -15 17 -14 18 18 18 l34 1 -29 25 c-32 29 -33 27 14 41 l35 10 -28 12
c-16 6 -67 11 -114 11 -99 0 -136 14 -187 71 -49 54 -86 131 -141 299 -27 80
-61 174 -77 209 l-28 64 72 -6 c76 -6 163 -30 410 -116 199 -68 317 -85 548
-78 210 6 286 23 439 98 88 43 117 64 186 133 97 97 140 173 161 287 62 325
-226 773 -566 880 -89 28 -231 28 -320 0 -35 -11 -67 -18 -70 -15 -2 3 -14 24
-25 47 -30 61 -58 76 -176 93 -57 9 -124 24 -148 35 -24 11 -46 17 -48 15 -2
-2 14 -19 37 -39 l41 -35 -43 -7 c-24 -3 -65 -17 -93 -29 l-50 -23 38 -8 c20
-4 39 -10 42 -14 2 -4 -22 -19 -55 -34 -58 -27 -110 -75 -110 -103 0 -12 4
-12 20 -4 11 6 20 9 20 8 0 -11 -49 -120 -63 -141 -14 -22 -14 -25 -2 -21 20
8 19 -2 -6 -43 -12 -19 -45 -48 -78 -66 -59 -34 -54 -45 18 -33 20 3 51 8 70
10 22 3 47 18 72 42 41 40 50 33 24 -16 -14 -28 -14 -30 3 -30 30 0 120 50
147 82 l25 30 0 -27 c0 -14 -7 -40 -16 -56 -8 -17 -13 -33 -10 -36 12 -13 74
41 106 92 59 94 61 96 54 46 -7 -41 -6 -43 13 -32 12 6 33 24 47 42 25 29 26
30 26 7 -1 -13 -9 -47 -19 -75 -10 -29 -14 -53 -9 -53 5 0 30 20 57 45 64 60
114 166 117 250 l3 60 38 11 c179 52 372 -2 529 -149 128 -120 215 -256 265
-417 32 -103 33 -250 1 -330 -60 -151 -214 -273 -419 -332 -69 -20 -100 -23
-268 -23 -242 0 -307 13 -571 116 -284 110 -410 138 -528 119 -57 -9 -60 -8
-96 20 -93 73 -235 117 -532 164 -178 28 -296 65 -407 128 -124 71 -251 204
-251 264 0 33 36 55 69 43 14 -6 34 -18 43 -26 16 -14 18 -14 18 -1 0 31 -42
67 -125 107 -80 39 -124 78 -111 99 3 5 18 12 34 15 36 7 82 44 82 66 0 10
-11 28 -25 41 l-25 23 0 -26 c0 -45 -45 -33 -113 32 -69 65 -85 125 -46 175
33 42 94 32 123 -22 l15 -27 1 32 c0 51 -42 90 -158 145 -112 54 -142 84 -142
144 0 31 14 44 45 44 22 0 75 -50 75 -71 0 -10 5 -19 11 -19 19 0 5 94 -19
128 -12 16 -42 38 -65 48 l-44 18 30 21 c32 21 74 72 66 79 -2 3 -22 0 -44 -6
-32 -8 -48 -7 -77 5 -21 9 -38 20 -38 25 0 4 17 17 38 27 l37 19 -43 6 c-50 8
-96 38 -100 68 -5 31 25 81 52 88 30 7 78 -17 105 -53 13 -18 20 -22 21 -13 0
23 -38 82 -73 113 l-32 28 50 -6 c58 -8 111 -33 160 -76 43 -38 45 -26 4 30
-19 27 -48 51 -80 66 l-51 23 58 17 c157 45 220 126 134 170 -37 19 -40 19
-40 -3 0 -36 -35 -55 -87 -48 -85 11 -169 60 -221 129 -26 34 -64 80 -85 103
l-38 42 37 19 c48 23 62 46 44 67 -12 15 -15 15 -32 -4 -10 -11 -20 -20 -22
-20 -19 0 -86 33 -151 74 -44 27 -97 59 -118 71 l-38 22 77 7 c110 10 138 28
159 104 8 26 -18 72 -40 72 -10 0 -12 -9 -8 -34z m863 -3275 c0 -8 -10 -44
-21 -81 l-21 -66 21 -84 c12 -47 33 -104 46 -126 49 -84 148 -141 262 -150 37
-4 78 -13 91 -20 43 -28 29 -55 -82 -156 -96 -87 -112 -97 -185 -121 -44 -15
-103 -27 -131 -27 -60 0 -114 -20 -130 -49 -7 -14 -21 -21 -41 -21 l-30 0 3
-82 3 -83 148 -9 c136 -8 147 -10 147 -28 0 -17 -5 -19 -42 -14 -77 11 -290
25 -465 32 -140 5 -173 9 -173 21 0 12 26 13 175 7 l175 -7 0 81 0 80 -99 7
-99 7 16 37 c12 28 15 70 14 200 -2 162 -2 163 19 158 18 -5 20 -2 16 20 -4
21 -1 24 15 20 15 -4 18 -2 12 11 -20 45 -15 113 14 204 17 51 34 108 37 125
l7 33 35 -15 c33 -14 35 -14 28 3 -4 9 -10 26 -13 37 -5 19 -5 19 23 1 l28
-18 -17 23 c-9 13 -16 33 -16 44 0 19 6 20 115 20 93 0 115 -3 115 -14z m-970
-50 c47 -4 94 -11 106 -18 11 -6 33 -36 49 -65 25 -46 30 -66 33 -150 5 -123
-16 -219 -65 -291 -19 -29 -41 -64 -49 -79 -14 -27 -16 -28 -104 -28 -102 0
-130 -15 -130 -69 0 -26 -4 -30 -32 -33 -40 -4 -78 -55 -78 -104 0 -31 -3 -34
-30 -34 l-30 0 0 -76 0 -77 58 7 c31 3 182 9 335 13 246 5 277 4 277 -9 0 -13
-24 -17 -147 -22 -316 -15 -581 -44 -828 -91 -71 -14 -135 -25 -142 -25 -9 0
-13 15 -13 44 0 52 -10 49 200 66 69 6 149 13 178 16 l52 5 0 71 0 71 -49 -5
-48 -5 23 34 c12 18 30 66 39 106 9 40 28 97 42 127 21 44 27 72 28 140 3 127
1 121 30 114 22 -5 25 -3 25 21 0 15 4 24 10 20 6 -4 10 6 10 22 0 15 14 74
32 131 30 97 33 103 55 97 18 -4 23 -1 23 15 0 23 10 26 28 8 14 -14 15 -4 2
40 -8 30 -7 33 8 26 9 -4 55 -10 102 -13z"/>
</g>
</svg>
