<?xml version="1.0" standalone="no"?>
<!DOCTYPE svg PUBLIC "-//W3C//DTD SVG 20010904//EN"
 "http://www.w3.org/TR/2001/REC-SVG-20010904/DTD/svg10.dtd">
<svg version="1.0" xmlns="http://www.w3.org/2000/svg"
 width="256.000000pt" height="256.000000pt" viewBox="0 0 256.000000 256.000000"
 preserveAspectRatio="xMidYMid meet">

<g transform="translate(0.000000,256.000000) scale(0.100000,-0.100000)"
fill="#000000" stroke="none">
<path d="M1075 2380 c-5 -49 -10 -68 -15 -55 -4 11 -5 25 -3 32 7 19 -29 73
-49 73 -14 0 -18 -8 -18 -37 0 -27 -3 -34 -11 -26 -6 6 -11 23 -11 37 0 21 -3
24 -19 16 -11 -7 -27 -6 -45 0 -21 8 -29 8 -36 -2 -12 -19 -10 -28 6 -28 7 0
16 -9 19 -20 3 -11 9 -19 14 -18 4 2 10 -1 11 -7 2 -5 8 -15 13 -21 6 -7 6
-21 0 -35 l-10 -24 -7 22 c-3 13 -10 20 -15 17 -5 -3 -9 2 -9 11 0 9 -4 14 -9
11 -5 -3 -11 0 -14 8 -7 18 -26 15 -61 -8 -27 -17 -28 -17 -33 3 -3 12 -9 21
-14 21 -5 0 -6 -7 -3 -15 6 -15 1 -19 -50 -30 -23 -5 -27 -8 -16 -15 8 -5 25
-7 37 -4 12 3 28 2 35 -2 7 -5 18 -9 23 -10 6 0 16 -2 23 -2 6 -1 12 -11 12
-23 0 -11 5 -17 10 -14 6 3 10 1 10 -5 0 -7 6 -10 13 -7 18 7 28 -1 56 -41 28
-41 23 -51 -9 -17 -23 24 -47 35 -35 15 3 -5 2 -10 -3 -10 -5 0 -13 10 -17 23
-4 14 -8 17 -12 9 -4 -10 -9 -9 -24 4 -19 17 -20 17 -13 -2 7 -17 6 -17 -9 -5
-9 7 -17 11 -17 7 0 -3 -12 -1 -26 4 -14 6 -23 6 -20 1 9 -13 -26 -23 -38 -11
-16 16 -30 12 -16 -5 11 -13 10 -14 -2 -10 -16 6 -28 -20 -20 -43 3 -10 7 -10
20 0 13 11 15 11 7 -2 -6 -12 -5 -12 4 -4 16 15 51 6 51 -13 0 -10 6 -12 19
-8 44 14 60 13 66 -2 7 -21 -11 -33 -50 -33 -39 0 -114 -21 -97 -27 10 -4 10
-8 0 -21 -8 -11 -4 -9 11 3 26 22 28 23 44 1 11 -14 15 -14 41 -1 35 18 50 19
40 3 -4 -7 1 -6 11 3 16 16 19 16 36 1 18 -16 17 -17 -38 -33 -35 -10 -57 -21
-55 -29 2 -7 -4 -20 -12 -29 -17 -19 -49 -91 -40 -91 3 0 12 7 20 15 8 8 21
12 29 9 8 -3 20 6 29 23 8 15 15 22 16 14 0 -10 3 -11 14 -2 9 8 16 8 20 2 4
-5 2 -12 -4 -16 -5 -3 -10 -18 -10 -33 0 -21 2 -24 10 -12 9 13 10 13 10 0 0
-9 11 -3 29 18 19 21 31 28 34 20 2 -7 11 4 20 24 8 20 26 42 39 49 20 11 22
11 10 -3 -8 -10 -9 -17 -3 -20 7 -2 6 -12 -2 -28 -27 -53 -16 -240 14 -240 9
0 29 48 29 70 0 11 4 20 9 20 5 0 8 12 5 26 -3 16 -1 23 6 19 6 -4 10 -57 10
-136 0 -125 -1 -129 -19 -119 -11 5 -38 10 -60 10 -22 0 -42 4 -45 9 -4 5 4 7
16 3 16 -4 19 -2 13 8 -5 9 -4 11 4 6 6 -4 18 -2 26 4 12 10 18 10 30 0 12
-10 15 -10 15 3 0 27 -39 48 -64 35 -19 -10 -20 -10 -7 6 23 27 3 31 -26 5
-25 -22 -26 -22 -9 -1 19 22 19 22 -5 22 -14 0 -31 -6 -38 -12 -11 -11 -13
-10 -7 2 5 9 2 8 -7 -2 -15 -19 -32 -25 -22 -8 3 6 -1 10 -9 10 -11 0 -16 -10
-17 -32 -1 -32 -2 -32 -8 -6 -7 31 -20 26 -39 -12 -10 -22 -11 -15 -9 48 1 39
-2 72 -7 72 -4 0 -5 11 -2 24 5 20 1 24 -22 29 -15 3 -36 9 -46 13 -16 6 -18
4 -12 -12 13 -33 15 -53 5 -60 -5 -3 -9 -2 -8 3 6 35 -45 62 -81 43 -17 -9
-19 -14 -10 -26 7 -7 17 -11 23 -7 5 3 7 1 4 -4 -4 -6 0 -13 8 -17 8 -3 15
-13 15 -22 0 -10 -5 -14 -15 -10 -12 4 -13 2 -7 -12 5 -9 7 -23 5 -29 -3 -7 2
-16 11 -19 9 -3 16 -16 16 -28 -1 -19 -2 -18 -16 7 -8 15 -18 27 -22 27 -7 0
-21 30 -35 72 -4 13 -15 16 -44 13 -21 -2 -43 1 -50 7 -7 6 -13 7 -13 3 0 -4
-6 -3 -12 3 -7 6 -26 8 -41 5 -21 -4 -25 -8 -15 -14 10 -7 10 -9 -2 -10 -45
-3 -62 -7 -73 -19 -10 -10 -8 -12 7 -6 16 5 17 4 6 -9 -9 -11 -9 -15 -1 -15 7
0 10 -4 6 -9 -3 -6 6 -8 20 -5 14 2 25 0 25 -7 0 -6 17 -1 38 11 30 18 33 19
13 3 -21 -18 -21 -21 -6 -26 9 -4 26 -2 37 4 18 9 19 8 13 -10 -7 -24 7 -28
25 -6 16 19 33 9 27 -16 -4 -14 0 -19 14 -19 11 0 25 -4 32 -10 62 -51 114
-86 113 -77 0 7 4 13 9 15 6 2 14 13 19 25 4 12 10 17 13 10 6 -17 -25 -73
-40 -73 -8 0 -40 13 -73 29 -74 35 -168 67 -259 86 -84 18 -165 20 -165 4 0
-6 8 -9 18 -7 11 3 19 0 19 -7 0 -7 -7 -11 -16 -8 -11 3 -11 1 2 -7 14 -9 23
-8 42 4 18 12 24 12 28 3 6 -16 100 -42 165 -46 7 -1 10 -5 7 -11 -3 -5 12
-12 35 -16 51 -8 59 -20 19 -29 -17 -4 -28 -9 -25 -12 3 -3 -9 -13 -26 -23
-33 -18 -77 -81 -78 -113 0 -14 12 -8 51 26 36 31 59 44 82 45 26 1 29 -1 15
-9 -10 -6 -18 -19 -18 -30 0 -11 -11 -35 -24 -52 -39 -51 -55 -101 -49 -147 6
-41 6 -42 19 -19 7 13 13 34 14 46 0 12 4 25 10 28 6 3 7 -1 4 -9 -4 -10 -1
-16 9 -16 13 0 13 -6 3 -42 -7 -24 -10 -54 -6 -68 6 -24 6 -24 19 7 8 20 18
30 27 26 9 -3 14 2 14 16 0 23 46 70 68 71 6 0 12 5 12 10 0 6 7 10 15 10 9 0
15 9 15 25 0 14 4 25 9 25 5 0 13 10 17 22 3 12 12 27 18 33 8 8 11 -11 12
-74 1 -60 10 -116 29 -186 26 -94 27 -112 26 -290 -1 -199 -15 -306 -50 -372
-14 -27 -29 -39 -69 -53 -51 -18 -185 -93 -232 -131 l-25 -19 65 6 c36 4 115
14 175 24 61 10 111 17 113 15 1 -1 -31 -14 -73 -30 -41 -15 -75 -29 -75 -31
0 -2 125 -4 278 -3 272 2 280 1 437 -30 88 -17 180 -31 205 -31 l45 1 -33 30
c-19 17 -32 33 -29 36 3 3 53 6 110 7 l104 1 -20 26 c-10 15 -51 51 -90 80
-40 29 -76 56 -80 60 -14 11 -17 110 -6 179 16 109 60 272 86 324 14 28 33 73
43 100 10 28 38 106 64 173 45 119 92 280 98 337 4 39 20 43 35 9 11 -22 10
-29 -2 -43 -14 -15 -12 -18 12 -31 39 -20 60 -47 73 -96 16 -56 44 -69 35 -15
-3 21 -2 49 3 63 6 15 6 32 1 41 -5 8 -11 32 -13 52 -4 30 -2 36 12 34 12 -2
18 5 20 26 l4 29 14 -28 c8 -15 14 -37 15 -49 0 -19 1 -19 11 4 l10 25 10 -25
c28 -67 32 -73 39 -53 7 18 10 13 35 -57 4 -12 6 -12 14 0 5 8 5 21 -1 31 -10
20 -2 49 13 49 6 0 3 12 -7 26 -11 18 -13 24 -4 19 8 -5 3 4 -11 20 -19 21
-21 27 -8 22 15 -5 16 -4 5 13 -6 11 -15 20 -19 20 -5 0 -17 9 -28 20 -16 16
-18 25 -10 45 6 14 15 37 20 51 l10 26 34 -21 c18 -11 36 -17 40 -14 4 4 16
-3 28 -17 12 -16 18 -19 14 -8 -12 38 53 34 72 -4 9 -19 11 -20 11 -5 1 25 23
17 38 -14 7 -13 13 -18 13 -10 0 13 12 12 55 -5 20 -7 20 -7 1 14 -10 12 -21
36 -25 54 -5 23 -13 34 -31 38 -23 6 -24 7 -6 17 17 9 16 11 -8 17 -17 4 -24
11 -20 18 5 8 2 9 -10 5 -10 -4 -19 -1 -22 8 -4 8 -15 15 -25 15 -10 0 -19 7
-19 15 0 11 -5 12 -26 5 -35 -14 -41 -12 -20 3 20 14 28 14 -139 3 -27 -2 -62
-6 -77 -9 -34 -5 -37 10 -5 23 28 12 60 33 68 42 3 5 17 9 32 10 15 1 27 6 27
10 0 4 7 8 15 8 8 0 15 5 15 10 0 6 13 10 29 10 25 0 41 14 41 37 0 6 -57 -2
-99 -14 -15 -4 -22 -2 -18 4 4 6 21 14 39 18 l33 7 -30 13 c-19 8 -36 10 -47
4 -30 -16 -42 -10 -20 11 14 14 36 20 69 21 26 1 39 3 28 6 -33 8 -42 23 -15
24 22 0 23 1 5 8 -17 7 -16 9 10 15 22 6 26 9 14 17 -9 6 5 9 44 9 64 0 76 14
21 24 -39 8 -91 0 -112 -16 -6 -6 -12 -8 -12 -4 0 4 -19 -3 -42 -15 -43 -22
-93 -63 -155 -128 -18 -19 -33 -29 -33 -22 0 7 -4 10 -8 7 -4 -2 -8 3 -9 12
-1 10 -2 22 -4 27 -4 19 14 50 54 93 45 46 41 53 -13 21 l-35 -21 40 41 c21
23 36 41 33 41 -20 0 -66 -28 -88 -53 -24 -27 -25 -28 -37 -8 -9 15 -10 22 -1
27 7 5 8 3 3 -6 -5 -9 -4 -11 3 -6 14 8 3 35 -22 56 -9 7 -16 23 -16 35 0 18
-4 22 -20 18 -11 -3 -20 -9 -20 -14 0 -5 -4 -9 -10 -9 -5 0 -10 9 -10 20 0 11
-4 20 -9 20 -14 0 -19 -23 -9 -42 6 -12 5 -18 -2 -18 -6 0 -5 -12 5 -30 19
-36 19 -54 0 -20 -7 14 -22 26 -32 26 -10 1 -26 5 -36 9 -15 6 -16 2 -12 -34
5 -38 4 -41 -19 -41 -13 0 -26 -6 -29 -14 -4 -10 8 -17 41 -26 34 -8 42 -14
32 -21 -11 -6 -12 -9 -2 -9 7 0 11 -4 8 -9 -3 -5 1 -12 10 -15 12 -5 14 -10 5
-20 -6 -7 -8 -16 -4 -19 3 -4 1 -7 -6 -7 -7 0 -9 -4 -6 -10 11 -18 -6 -10 -44
19 -56 44 -116 71 -158 71 -32 0 -39 -4 -39 -19 0 -15 4 -17 17 -10 28 14 36
10 14 -7 -19 -15 -19 -15 9 -8 22 5 27 4 21 -6 -6 -10 -1 -12 26 -7 19 4 29 4
23 -1 -7 -4 14 -26 57 -57 50 -36 68 -55 65 -67 -4 -17 4 -22 30 -19 6 1 21
-10 34 -24 13 -14 20 -25 16 -25 -4 0 -59 12 -123 26 -88 20 -130 25 -167 19
-131 -17 -149 -22 -141 -36 4 -5 14 -5 26 1 25 14 24 2 -3 -29 l-23 -26 25 20
c44 36 70 47 70 32 0 -8 -9 -22 -20 -32 -34 -31 -22 -39 15 -11 26 20 33 22
28 9 -5 -14 0 -12 28 7 28 20 31 20 17 4 -24 -28 -23 -41 2 -19 23 20 26 14 8
-15 -23 -37 1 -32 48 9 26 23 49 39 52 36 3 -2 -7 -14 -21 -26 -15 -11 -27
-25 -27 -31 0 -6 17 2 37 18 20 15 33 22 29 16 -10 -16 6 -15 24 1 8 6 6 1 -5
-12 -11 -13 -36 -30 -55 -39 -19 -8 -47 -27 -63 -42 -24 -23 -26 -28 -12 -34
12 -4 14 -10 6 -25 -8 -13 -8 -20 0 -23 5 -2 2 -12 -8 -23 -10 -11 -18 -24
-18 -30 3 -35 18 -94 30 -115 l14 -25 1 30 c1 38 36 118 49 111 5 -4 12 2 14
11 4 17 5 17 6 1 0 -10 5 -18 10 -18 5 0 7 -23 4 -53 -5 -50 -4 -53 22 -65 26
-12 27 -12 23 13 -6 31 23 145 46 180 9 13 26 27 39 30 12 3 31 19 42 35 34
50 28 25 -13 -56 -48 -95 -64 -166 -61 -271 1 -72 -1 -84 -40 -166 -23 -48
-59 -116 -81 -151 -22 -35 -40 -66 -40 -70 0 -7 -42 -99 -101 -223 -17 -35
-34 -65 -39 -68 -5 -3 -11 -19 -15 -35 -4 -17 -18 -43 -32 -58 -14 -15 -42
-50 -62 -79 l-37 -51 -62 58 -62 57 0 76 c0 42 5 87 11 101 9 18 7 83 -5 260
-16 243 -25 419 -31 649 -1 73 -6 155 -9 182 -6 47 -5 46 13 -19 20 -72 50
-136 63 -136 16 0 12 108 -7 162 -7 21 -9 35 -4 32 4 -2 16 -29 25 -59 10 -30
21 -52 25 -50 4 3 6 36 5 74 l-1 70 30 -31 30 -31 3 26 c2 15 -8 50 -22 78
-31 60 -30 56 -11 56 8 0 15 -5 15 -11 0 -6 5 -4 10 4 8 12 10 12 10 -5 0 -17
2 -17 10 -5 7 11 10 5 10 -25 l1 -40 15 27 c14 27 31 29 60 7 6 -5 14 -6 17
-2 4 3 16 -5 27 -18 l21 -24 -7 24 c-7 27 -33 53 -78 77 -43 23 -24 37 59 43
41 3 -9 21 -59 21 -48 0 -48 0 -41 27 9 36 27 47 42 26 11 -15 13 -15 19 1 4
9 12 15 18 13 7 -3 13 3 13 13 1 13 -7 21 -28 25 -16 4 -29 11 -29 16 0 5 -10
3 -22 -5 -13 -8 -38 -17 -56 -21 -32 -7 -33 -6 -21 14 7 11 24 21 37 23 19 2
28 14 42 51 l18 47 -28 0 c-19 0 -30 6 -33 18 -3 13 -7 9 -16 -15 -7 -17 -19
-34 -27 -37 -17 -7 -18 -2 -2 23 9 15 9 23 -1 35 -16 20 -54 3 -70 -30 -7 -16
-16 -22 -27 -17 -13 5 -15 2 -9 -15 3 -12 2 -22 -3 -22 -6 0 -13 -12 -18 -27
-5 -20 -8 -23 -11 -12 -10 42 57 226 77 214 15 -9 12 11 -4 24 -11 9 -15 8
-20 -4 -3 -9 -10 -13 -16 -10 -5 3 -11 0 -11 -7 -1 -7 -5 3 -9 22 -6 31 -7 26
-15 -40z m-119 -299 c-8 -12 -76 -52 -76 -44 0 15 45 53 62 53 11 0 17 -4 14
-9z m-91 -141 c-3 -5 -11 -10 -16 -10 -6 0 -7 5 -4 10 3 6 11 10 16 10 6 0 7
-4 4 -10z m193 -61 c-3 -20 -5 -19 -9 9 -3 20 -2 29 4 23 5 -5 7 -19 5 -32z
m-698 -204 c-7 -8 -18 -15 -24 -15 -6 0 -2 7 8 15 25 19 32 19 16 0z m1627
-11 c15 -14 29 -21 31 -15 8 24 32 10 32 -19 0 -22 -4 -28 -15 -23 -9 3 -13 8
-10 11 3 3 -11 15 -32 26 -20 12 -38 27 -41 34 -6 18 4 15 35 -14z m-1321 -98
c3 -8 4 -25 2 -38 l-3 -23 -18 27 c-18 26 -16 48 4 48 5 0 12 -6 15 -14z
m1094 -36 c0 -11 -2 -20 -4 -20 -2 0 -6 9 -9 20 -3 11 -1 20 4 20 5 0 9 -9 9
-20z m-724 -41 c5 -9 20 -404 26 -684 0 -22 -12 -75 -26 -118 -15 -44 -31
-116 -37 -162 -15 -137 -38 -172 -59 -92 -7 23 -19 53 -28 67 -9 14 -18 47
-20 74 -2 27 -9 58 -17 70 -7 11 -16 55 -20 96 -8 83 -38 215 -89 395 -18 67
-36 141 -40 165 l-7 45 17 -35 c10 -19 19 -47 20 -61 2 -15 9 -39 15 -55 l12
-29 7 32 c4 18 3 56 -2 84 -9 51 -4 79 8 43 9 -30 54 -124 59 -124 7 0 -26
103 -45 140 -10 19 -37 53 -59 75 -59 56 -51 86 15 59 33 -14 73 -11 83 5 12
19 176 27 187 10z m711 -21 c-3 -8 -6 -5 -6 6 -1 11 2 17 5 13 3 -3 4 -12 1
-19z m-17 -84 c0 -11 -11 -35 -25 -54 -14 -19 -25 -29 -25 -23 0 5 9 21 21 34
16 18 19 32 15 59 -4 24 -3 30 4 20 5 -8 10 -24 10 -36z"/>
<path d="M747 1435 c10 -13 23 -25 30 -25 7 0 17 -9 23 -20 15 -28 39 -26 34
3 -4 21 -4 21 5 1 8 -18 29 -34 51 -38 3 -1 11 -5 19 -10 8 -5 16 -4 22 5 5 8
9 9 9 4 0 -6 20 -15 45 -21 25 -6 45 -7 45 -3 0 8 -67 57 -107 78 -20 10 -166
50 -186 51 -4 0 0 -11 10 -25z"/>
<path d="M436 1747 c3 -10 9 -15 12 -12 3 3 0 11 -7 18 -10 9 -11 8 -5 -6z"/>
<path d="M1549 1713 c-13 -16 -12 -17 4 -4 9 7 17 15 17 17 0 8 -8 3 -21 -13z"/>
<path d="M475 1370 c-3 -5 -1 -10 4 -10 6 0 11 5 11 10 0 6 -2 10 -4 10 -3 0
-8 -4 -11 -10z"/>
</g>
</svg>
