<?xml version="1.0" standalone="no"?>
<!DOCTYPE svg PUBLIC "-//W3C//DTD SVG 20010904//EN"
 "http://www.w3.org/TR/2001/REC-SVG-20010904/DTD/svg10.dtd">
<svg version="1.0" xmlns="http://www.w3.org/2000/svg"
 width="528.000000pt" height="501.000000pt" viewBox="0 0 528.000000 501.000000"
 preserveAspectRatio="xMidYMid meet">

<g transform="translate(0.000000,501.000000) scale(0.100000,-0.100000)"
fill="#000000" stroke="none">
<path d="M1825 4931 c-11 -5 -81 -11 -155 -15 -74 -4 -178 -14 -230 -22 -52
-8 -120 -17 -150 -20 -30 -3 -59 -10 -64 -15 -6 -5 -25 -9 -42 -9 -42 0 -134
-21 -134 -31 0 -4 -15 -11 -32 -14 -18 -4 -55 -17 -83 -30 -27 -12 -71 -31
-97 -40 -27 -10 -48 -22 -48 -26 0 -5 -9 -9 -20 -9 -11 0 -20 -7 -20 -15 0 -8
-7 -15 -15 -15 -8 0 -15 -4 -15 -9 0 -12 -44 -61 -55 -61 -26 0 -105 -116
-105 -155 0 -7 -9 -16 -20 -20 -18 -6 -40 -57 -40 -93 0 -7 -7 -15 -15 -18 -8
-4 -15 -12 -15 -20 0 -7 -7 -17 -16 -22 -8 -5 -18 -28 -21 -51 -3 -24 -12 -45
-19 -48 -9 -3 -14 -21 -14 -47 0 -49 -29 -136 -46 -136 -13 0 -24 -22 -24 -49
0 -10 -11 -45 -25 -79 -14 -34 -25 -72 -25 -85 0 -13 -9 -34 -20 -47 -11 -13
-23 -35 -26 -49 -3 -14 -16 -55 -30 -91 -13 -36 -24 -76 -24 -88 0 -12 -6 -22
-12 -23 -7 0 -4 -4 7 -9 27 -11 165 -12 165 -1 0 5 9 11 20 14 21 6 40 44 40
83 0 15 6 24 15 24 9 0 15 9 15 24 0 14 13 37 28 53 35 34 52 65 52 91 0 13 9
22 25 26 18 5 25 13 25 31 0 14 4 25 10 25 5 0 12 11 16 25 3 14 12 25 20 25
8 0 14 5 14 12 0 13 59 68 73 68 4 0 20 12 35 28 15 15 39 33 55 39 15 7 27
17 27 23 0 5 6 10 13 10 6 0 23 9 37 20 14 11 34 20 46 20 11 0 24 3 27 7 15
14 144 52 179 53 20 0 67 7 105 16 54 13 104 15 246 11 103 -2 183 -9 189 -15
12 -12 -7 -604 -22 -687 -5 -27 -9 -69 -9 -92 -1 -24 -5 -43 -10 -43 -4 0 -11
-62 -15 -137 -4 -76 -11 -140 -16 -143 -5 -3 -12 -29 -16 -58 -3 -28 -10 -52
-14 -52 -4 0 -10 -26 -13 -57 -14 -131 -28 -208 -37 -211 -6 -2 -10 -21 -10
-43 0 -21 -3 -39 -8 -39 -8 0 -32 -113 -32 -150 0 -11 -4 -20 -8 -20 -5 0 -16
-26 -26 -57 -10 -32 -21 -60 -25 -63 -4 -3 -18 -53 -33 -112 -20 -79 -34 -115
-52 -133 -14 -14 -26 -36 -26 -48 0 -12 -11 -44 -25 -72 -13 -27 -29 -69 -35
-92 -6 -25 -17 -43 -25 -43 -8 0 -21 -24 -32 -60 -9 -33 -21 -60 -25 -60 -4 0
-8 -6 -8 -14 0 -8 -16 -30 -34 -50 -21 -20 -38 -50 -42 -71 -3 -20 -13 -42
-20 -50 -8 -7 -14 -19 -14 -25 0 -7 -11 -21 -25 -32 -14 -11 -25 -25 -25 -32
0 -11 -9 -25 -50 -73 -5 -7 -10 -19 -10 -28 0 -8 -6 -15 -13 -15 -7 0 -20 -16
-27 -36 -8 -20 -22 -41 -30 -48 -9 -6 -26 -28 -39 -48 -12 -21 -26 -38 -31
-38 -5 0 -14 -16 -20 -35 -6 -19 -15 -35 -20 -35 -5 0 -21 -22 -37 -50 -15
-27 -31 -50 -35 -50 -5 0 -8 -7 -8 -15 0 -8 -4 -15 -9 -15 -5 0 -15 -16 -21
-35 -6 -19 -15 -35 -18 -35 -35 0 -57 -324 -28 -395 9 -21 16 -48 16 -60 0
-13 7 -25 15 -29 8 -3 15 -15 15 -26 0 -11 7 -23 15 -26 8 -4 15 -12 15 -18 0
-7 11 -19 25 -26 13 -7 27 -21 31 -32 3 -10 14 -23 25 -28 10 -6 19 -17 19
-25 0 -7 13 -16 30 -20 16 -4 30 -11 30 -16 0 -5 5 -9 12 -9 6 0 19 -6 27 -14
9 -8 41 -24 71 -35 45 -17 78 -21 183 -21 78 0 127 4 127 10 0 6 11 10 24 10
14 0 28 4 31 10 3 5 16 10 29 10 12 0 33 11 46 25 13 14 31 25 40 25 15 0 35
15 72 56 9 11 23 24 30 31 18 17 38 41 38 47 0 3 14 19 30 36 17 17 30 39 30
50 0 10 11 31 24 45 13 14 26 39 30 56 3 16 12 36 19 44 8 7 17 37 21 65 7 52
24 100 39 111 5 4 12 28 15 55 2 27 8 51 12 54 20 15 80 345 80 441 0 28 4 39
15 39 11 0 15 12 15 48 0 27 7 93 15 148 8 54 15 154 15 222 0 67 4 122 8 122
7 0 32 204 32 262 0 14 5 28 11 30 6 2 13 57 16 138 3 74 9 137 13 140 12 8
30 322 30 513 0 97 4 177 9 177 4 0 12 48 15 107 4 60 12 110 17 113 4 3 13
107 19 230 14 290 20 364 32 371 5 3 12 60 15 127 l6 122 534 0 533 0 0 -80
c0 -60 -3 -80 -13 -80 -16 0 -19 -43 -38 -460 -7 -140 -15 -257 -19 -260 -11
-7 -19 -99 -26 -325 -4 -110 -10 -202 -15 -205 -4 -3 -11 -47 -15 -98 -4 -50
-10 -92 -14 -92 -4 0 -12 -66 -19 -147 -6 -82 -15 -209 -21 -283 -6 -74 -10
-154 -10 -177 0 -31 -4 -43 -14 -43 -13 0 -15 -60 -18 -412 -4 -549 -1 -708
15 -708 8 0 19 -27 27 -62 15 -71 29 -108 42 -108 4 0 8 -7 8 -15 0 -9 7 -18
15 -21 8 -4 15 -17 15 -31 0 -23 15 -62 29 -73 3 -3 14 -22 23 -42 10 -21 24
-38 33 -38 8 0 15 -7 15 -16 0 -9 18 -33 39 -53 95 -87 112 -101 124 -101 17
-1 47 -25 47 -39 0 -6 9 -11 20 -11 11 0 20 -4 20 -10 0 -5 11 -10 24 -10 14
0 28 -4 31 -10 3 -5 15 -10 26 -10 10 0 19 -4 19 -9 0 -5 15 -13 33 -16 17 -4
37 -11 42 -15 19 -14 100 -22 279 -27 117 -2 183 0 190 7 5 5 22 10 37 10 15
0 31 4 34 10 3 5 15 10 26 10 11 0 40 11 65 25 25 14 53 25 63 25 11 0 29 11
42 25 13 13 29 25 34 25 6 0 28 16 50 35 22 19 44 35 50 35 5 0 21 12 34 25
13 14 27 25 32 25 5 0 9 7 9 15 0 9 7 18 15 21 8 4 15 13 15 22 0 8 13 27 28
41 16 14 32 34 35 44 4 9 12 17 19 17 8 0 22 22 33 50 11 27 25 52 32 54 7 3
13 16 13 28 0 13 8 28 18 34 10 7 24 31 31 55 27 87 46 128 63 133 11 2 18 14
18 30 0 14 4 35 9 48 5 13 19 80 32 151 13 70 27 127 31 127 4 0 8 6 8 14 0 8
4 16 9 18 5 2 12 65 16 140 l7 138 -95 0 -94 0 -7 -82 c-7 -81 -24 -158 -36
-168 -4 -3 -10 -23 -13 -44 -4 -22 -13 -44 -22 -48 -8 -5 -15 -17 -15 -27 0
-25 -23 -71 -36 -71 -6 0 -20 -11 -30 -25 -10 -14 -24 -25 -31 -25 -7 0 -15
-11 -19 -25 -3 -14 -12 -25 -20 -25 -8 0 -14 -3 -14 -8 0 -10 -53 -37 -105
-53 -22 -7 -46 -17 -53 -22 -18 -14 -286 -14 -303 -1 -8 6 -34 16 -59 24 -54
16 -100 41 -100 54 0 8 -47 56 -55 56 -18 0 -75 79 -86 118 -7 26 -16 49 -20
52 -4 3 -14 32 -23 65 -8 33 -20 61 -26 63 -5 2 -10 26 -10 53 0 27 -4 49 -9
49 -10 0 -26 262 -26 435 1 217 18 615 27 615 4 0 8 45 8 100 0 55 4 100 8
100 10 0 28 185 38 383 3 70 10 127 14 127 4 0 10 53 13 118 3 64 11 243 17
397 7 154 16 282 21 283 5 2 9 39 9 83 l0 79 575 0 575 0 0 385 0 385 -1572
-1 c-865 0 -1582 -4 -1593 -8z"/>
</g>
</svg>
