<?xml version="1.0" standalone="no"?>
<!DOCTYPE svg PUBLIC "-//W3C//DTD SVG 20010904//EN"
 "http://www.w3.org/TR/2001/REC-SVG-20010904/DTD/svg10.dtd">
<svg version="1.0" xmlns="http://www.w3.org/2000/svg"
 width="240.000000pt" height="236.000000pt" viewBox="0 0 240.000000 236.000000"
 preserveAspectRatio="xMidYMid meet">
<metadata>
Created by potrace 1.16, written by Peter Selinger 2001-2019
</metadata>
<g transform="translate(0.000000,236.000000) scale(0.100000,-0.100000)"
fill="#000000" stroke="none">
<path d="M1631 2283 c-11 -24 -37 -133 -44 -183 -1 -8 -18 -24 -37 -35 -24
-14 -45 -39 -65 -80 -24 -48 -42 -68 -89 -100 -33 -22 -64 -52 -70 -66 -6 -15
-37 -54 -68 -88 -32 -34 -61 -73 -64 -88 -4 -14 -22 -39 -40 -56 -31 -26 -43
-53 -58 -127 -8 -37 -110 -145 -172 -182 -30 -18 -54 -35 -54 -38 0 -4 15 -21
34 -39 l34 -33 73 51 c40 28 76 48 80 44 4 -5 10 -29 13 -54 6 -42 4 -48 -18
-63 -32 -21 -36 -20 -36 4 0 20 -1 20 -35 -2 -19 -13 -35 -30 -35 -37 0 -19
50 -184 58 -193 4 -4 16 0 26 7 18 14 18 16 -7 67 -23 46 -25 55 -12 67 13 13
18 12 38 -7 32 -30 37 -28 37 16 0 36 14 62 32 62 4 0 8 -11 8 -24 0 -30 20
-89 33 -98 7 -4 6 -12 -2 -22 -21 -25 -28 -19 -37 26 l-8 43 -4 -37 c-3 -41
-12 -47 -32 -23 -7 8 -16 15 -21 15 -11 0 0 -30 20 -54 15 -17 15 -19 -3 -30
-44 -27 -57 -41 -50 -59 5 -14 9 -15 20 -6 16 13 16 14 32 -23 10 -25 8 -29
-37 -67 -27 -23 -53 -41 -59 -41 -5 0 -15 14 -21 30 -8 25 -7 32 4 37 16 6 20
29 6 37 -5 3 -20 -3 -34 -14 -30 -24 -37 -25 -37 -5 0 20 -14 19 -35 -1 -13
-13 -13 -19 -3 -31 10 -12 9 -18 -7 -30 -19 -14 -20 -11 -26 69 -5 68 -3 85 9
96 22 17 32 15 32 -6 0 -10 13 -30 28 -45 24 -23 31 -25 45 -15 15 12 13 22
-19 113 -19 54 -36 100 -38 102 -1 2 -19 -9 -38 -24 -29 -23 -35 -33 -31 -54
4 -20 -1 -29 -22 -43 -15 -10 -28 -16 -30 -14 -5 6 -35 80 -35 88 0 6 91 82
139 117 2 1 -12 20 -31 41 l-35 39 -64 -35 c-130 -71 -195 -112 -232 -146 -21
-20 -43 -36 -48 -36 -6 0 -17 -17 -25 -37 -9 -21 -24 -47 -34 -58 -10 -11 -24
-47 -32 -80 -12 -49 -19 -60 -40 -66 -14 -4 -56 -24 -94 -46 -38 -22 -77 -43
-87 -46 -9 -4 -31 -28 -47 -54 -17 -26 -37 -51 -45 -56 -19 -10 -19 -27 0 -27
19 0 19 -15 -1 -45 -17 -27 -30 -154 -20 -207 8 -45 54 -94 102 -108 22 -6 79
-15 129 -20 50 -5 115 -13 145 -19 30 -5 116 -12 191 -15 132 -5 137 -4 142
16 5 19 10 20 89 13 46 -4 90 -11 99 -16 8 -4 51 -11 95 -14 43 -3 100 -8 127
-11 47 -5 47 -5 47 26 0 16 -3 30 -7 30 -5 0 -71 7 -148 15 -77 8 -144 15
-149 15 -5 0 -2 7 5 17 12 13 12 17 1 21 -8 2 -43 24 -79 48 -71 48 -84 51
-102 30 -10 -12 -3 -20 41 -45 29 -17 57 -31 63 -31 5 0 5 -4 -1 -10 -5 -5
-49 -13 -97 -16 -71 -6 -85 -9 -76 -20 25 -31 -96 -9 -133 24 -18 15 -22 11
-19 -20 3 -23 -16 -23 -83 1 -40 14 -71 18 -118 14 -66 -5 -130 7 -163 31 -19
14 -19 15 5 35 14 11 32 18 40 14 8 -3 31 -8 50 -11 29 -3 33 -2 22 9 -36 38
5 38 78 -1 30 -17 68 -30 83 -30 24 0 27 3 22 22 -6 18 -4 20 11 13 33 -14
130 -29 147 -22 14 5 3 21 -51 77 -65 66 -71 70 -113 70 -53 0 -115 40 -149
95 -12 19 -25 35 -30 35 -18 0 -72 -54 -90 -91 -26 -51 -25 -54 9 -30 40 29
46 26 20 -10 -12 -17 -27 -49 -34 -72 -6 -22 -21 -47 -33 -55 -20 -13 -22 -12
-33 14 -25 65 18 207 77 253 19 15 22 21 10 21 -55 0 44 70 143 100 83 26 86
26 102 -12 11 -26 11 -32 0 -36 -8 -3 -27 -17 -44 -32 l-30 -27 32 -23 c22
-15 55 -25 100 -30 77 -8 100 -19 166 -77 l47 -43 -27 -10 c-27 -10 -27 -11
-9 -29 19 -18 20 -18 52 1 17 11 32 16 32 13 0 -4 7 -2 15 5 13 11 20 9 43
-13 33 -32 42 -33 42 -9 1 35 33 60 93 71 68 12 168 55 193 82 28 31 36 22 15
-19 -31 -59 -62 -89 -125 -124 -33 -18 -61 -38 -63 -44 -2 -6 15 -20 39 -30
34 -14 66 -18 151 -16 117 2 156 -9 178 -49 14 -26 -10 -55 -52 -64 -22 -5
-29 -12 -29 -31 0 -32 35 -32 77 -1 32 23 133 125 133 134 0 3 -9 17 -20 33
-27 38 -91 53 -217 51 -117 -2 -126 5 -68 52 30 24 84 52 112 59 5 1 16 9 26
19 10 9 45 27 77 40 45 17 64 31 77 56 10 18 22 33 28 33 5 0 18 -19 28 -43 9
-23 30 -55 45 -72 15 -16 36 -51 46 -77 10 -26 22 -50 27 -53 5 -4 9 -21 9
-38 0 -39 74 -168 123 -215 30 -29 106 -66 115 -57 2 2 1 17 -3 34 -4 21 -13
31 -25 31 -10 0 -39 20 -64 43 -43 41 -50 55 -101 208 -40 119 -62 170 -80
184 -20 17 -26 33 -31 92 -5 49 -3 82 6 103 15 37 21 37 42 0 9 -17 21 -30 26
-30 8 0 52 170 52 202 0 10 16 26 40 38 40 21 70 26 70 12 0 -48 -25 -190 -41
-236 -25 -71 -23 -106 16 -312 l27 -141 62 -40 c51 -33 64 -46 70 -74 5 -25 2
-37 -9 -45 -14 -11 -22 -74 -8 -74 3 0 21 11 40 26 25 19 33 32 33 58 0 40 17
64 50 68 59 7 13 98 -59 118 -20 5 -44 15 -54 22 -42 31 -64 239 -31 286 15
21 15 33 -1 141 -15 107 -15 122 -1 178 9 33 16 74 16 89 0 47 -33 90 -85 110
-47 17 -47 17 -64 -4 -16 -22 -16 -22 -47 -3 -18 11 -46 38 -65 60 -32 41 -62
51 -103 35 -18 -7 -8 -24 72 -122 40 -50 46 -72 19 -72 -7 0 -36 -11 -65 -25
-40 -19 -103 -73 -256 -222 -114 -111 -227 -212 -257 -230 -60 -36 -153 -63
-214 -63 -59 0 -164 28 -211 55 -81 47 -145 146 -169 259 -13 66 -7 93 33 129
19 18 20 17 26 -30 27 -199 124 -310 288 -329 67 -8 167 16 223 53 22 15 126
110 230 213 105 102 207 196 228 209 22 14 34 27 30 34 -4 6 -35 52 -70 101
-35 49 -63 92 -63 97 0 4 19 2 41 -6 71 -25 119 -18 119 19 0 40 -11 61 -40
78 -16 9 -44 38 -62 63 l-33 47 -60 -4 -60 -3 1 53 c1 28 -1 52 -4 52 -3 0
-16 -10 -29 -22 l-23 -21 0 32 c0 24 9 41 30 61 l31 29 -28 3 c-28 3 -28 3 18
36 49 35 113 117 104 132 -3 5 11 18 32 29 45 22 65 44 82 88 12 29 61 85 61
69 0 -3 -7 -23 -15 -43 -8 -19 -15 -47 -15 -62 0 -32 -18 -60 -79 -125 l-46
-48 43 6 c32 5 44 3 48 -8 8 -22 -12 -52 -51 -76 -30 -19 -65 -64 -65 -85 0
-3 16 -3 35 1 19 3 51 3 71 0 37 -8 114 -69 114 -92 0 -17 -12 -18 -27 -3 -15
15 -33 3 -33 -22 0 -26 16 -57 48 -91 25 -28 25 -28 4 -28 -22 0 -26 -11 -14
-43 6 -14 22 -19 83 -22 93 -5 173 -34 239 -86 l50 -39 -7 32 c-13 72 -55 119
-152 170 -28 16 -51 35 -51 43 0 8 17 19 43 26 23 7 43 14 45 15 2 1 -5 19
-16 41 -10 21 -22 50 -26 65 l-6 27 46 -26 46 -26 -8 24 c-4 13 -10 42 -13 64
-6 40 -11 45 -85 77 -32 14 -54 60 -55 115 -1 28 5 36 42 56 55 32 129 51 167
44 35 -7 49 8 27 30 -14 14 -21 14 -72 -7 -58 -24 -132 -23 -161 1 -17 14 -18
91 -3 106 9 9 3 29 -21 80 l-33 68 -8 -49 c-4 -28 -6 -55 -3 -60 3 -6 -2 -2
-10 8 -9 11 -16 33 -16 48 0 40 21 118 31 118 18 0 66 -79 83 -138 16 -53 23
-62 55 -75 20 -9 51 -18 70 -21 28 -5 32 -4 21 8 -6 8 -31 22 -55 31 -39 16
-45 22 -70 86 -25 66 -26 71 -11 94 9 14 20 25 24 25 19 0 46 -68 47 -117 l0
-53 55 -27 c30 -16 82 -56 115 -89 46 -48 80 -71 148 -102 68 -32 87 -45 87
-61 0 -12 9 -30 20 -41 19 -19 19 -20 0 -30 -30 -16 -104 -12 -182 10 -87 24
-131 25 -148 5 -20 -24 -4 -30 78 -31 43 -1 112 -5 155 -9 111 -11 83 -28 -45
-27 -64 1 -123 -4 -156 -14 l-52 -15 31 -62 c17 -34 46 -87 65 -117 18 -30 37
-70 40 -89 7 -31 6 -33 -14 -22 -31 16 -31 15 -15 -36 21 -69 26 -207 11 -278
-12 -53 -16 -60 -36 -58 -19 2 -22 -2 -22 -31 0 -18 -7 -72 -15 -119 -10 -57
-12 -104 -7 -139 7 -52 7 -52 23 -27 8 13 23 64 33 114 9 49 23 97 31 105 25
29 45 93 45 147 0 29 7 69 14 88 12 27 13 48 6 92 -13 75 -13 73 6 73 12 0 15
5 9 23 -4 12 -8 33 -10 47 -1 14 -7 35 -13 47 -7 12 -12 29 -12 38 0 9 -18 46
-40 82 -22 37 -40 72 -40 79 0 15 55 24 147 24 90 0 118 10 139 52 9 18 25 43
36 54 31 34 21 73 -27 105 -47 31 -126 72 -174 90 -19 7 -59 38 -90 70 -31 32
-77 66 -103 77 -45 20 -48 23 -48 59 0 21 -5 55 -10 75 -16 55 -109 128 -110
86 0 -7 -11 -21 -24 -30 -22 -16 -24 -15 -50 13 -34 36 -49 37 -65 2z"/>
</g>
</svg>
