<?xml version="1.0" standalone="no"?>
<!DOCTYPE svg PUBLIC "-//W3C//DTD SVG 20010904//EN"
 "http://www.w3.org/TR/2001/REC-SVG-20010904/DTD/svg10.dtd">
<svg version="1.0" xmlns="http://www.w3.org/2000/svg"
 width="512.000000pt" height="512.000000pt" viewBox="0 0 512.000000 512.000000"
 preserveAspectRatio="xMidYMid meet">

<g transform="translate(0.000000,512.000000) scale(0.100000,-0.100000)"
fill="#000000" stroke="none">
<path d="M1400 4865 c-8 -22 -13 -24 -35 -15 -90 34 -177 -36 -160 -128 16
-88 127 -232 190 -248 25 -6 27 -10 20 -43 -3 -20 -9 -55 -12 -78 -3 -24 -7
-43 -8 -43 -1 0 -19 7 -38 15 -46 19 -91 19 -107 0 -20 -24 -6 -92 28 -134 16
-20 53 -48 82 -63 51 -25 54 -29 75 -95 26 -82 65 -159 139 -277 l56 -89 -19
-61 c-11 -33 -23 -86 -26 -118 l-6 -56 -52 -7 c-108 -15 -162 -52 -165 -115
-4 -54 20 -92 71 -113 60 -24 117 -22 159 7 l35 23 37 -74 c45 -92 99 -151
230 -250 55 -42 113 -87 127 -100 l26 -24 -42 -64 c-48 -70 -96 -188 -116
-280 -7 -33 -14 -62 -16 -64 -2 -3 -52 42 -111 100 -59 58 -124 119 -145 137
l-39 33 8 72 c20 178 4 243 -66 271 -58 23 -87 20 -120 -12 -31 -31 -56 -125
-46 -168 8 -29 6 -29 -70 -3 -57 20 -61 24 -72 64 -14 54 -101 184 -152 228
-38 32 -39 34 -28 74 15 61 -12 114 -64 127 -33 8 -41 7 -62 -13 -13 -13 -30
-36 -36 -52 -11 -25 -18 -29 -51 -29 -31 0 -42 6 -64 34 -14 19 -40 40 -57 47
-28 11 -33 11 -48 -9 -14 -16 -20 -18 -31 -9 -7 7 -6 3 2 -8 9 -11 19 -32 23
-47 3 -15 17 -40 30 -55 23 -26 23 -29 9 -57 -24 -47 -14 -149 22 -221 40 -79
146 -185 223 -221 l59 -29 4 -75 c6 -109 61 -204 170 -290 l48 -38 -25 -23
c-32 -30 -54 -104 -43 -143 13 -45 46 -75 77 -70 15 3 31 9 36 14 6 6 17 3 29
-8 19 -16 19 -16 7 4 -11 18 -10 25 7 50 12 16 35 42 52 58 l30 29 75 -22 c93
-28 233 -51 306 -51 100 0 96 4 104 -125 7 -126 43 -349 79 -495 l24 -95 -108
-5 c-95 -4 -111 -8 -131 -27 -33 -33 -30 -89 6 -119 23 -21 37 -24 105 -24
l78 0 17 -257 c9 -142 21 -330 26 -417 8 -150 10 -161 32 -178 39 -30 101 -57
156 -68 61 -11 530 -30 827 -32 278 -3 312 6 379 94 l28 37 8 358 c5 197 9
382 10 411 l0 52 61 0 c54 0 64 3 90 29 38 38 38 74 0 112 -29 29 -31 29 -140
29 -110 0 -111 0 -107 23 2 12 19 100 37 195 l33 172 36 0 c43 0 169 34 227
60 24 11 45 20 49 20 12 0 148 72 189 100 24 17 48 30 53 30 5 0 15 -14 22
-30 7 -17 15 -29 17 -26 2 2 -3 19 -12 37 -17 31 -17 33 6 50 30 23 31 23 65
-3 15 -13 60 -37 99 -55 92 -41 171 -42 211 -1 27 27 35 67 20 100 -6 13 0 22
26 38 18 11 28 20 23 20 -6 0 -21 -7 -33 -16 -21 -15 -28 -13 -127 37 -58 28
-105 54 -105 57 0 2 14 33 31 67 22 46 32 82 36 138 l6 76 46 4 46 3 -48 2
c-45 2 -48 4 -54 35 -9 39 -9 38 23 89 67 106 94 241 58 296 -32 50 -75 67
-102 40 -9 -9 -21 -8 -51 2 -33 10 -43 11 -56 0 -22 -18 -18 -65 9 -97 18 -22
21 -33 15 -51 -6 -15 -13 -21 -21 -16 -10 6 -10 5 -1 -7 13 -16 6 -69 -11 -75
-6 -2 -24 0 -41 4 -42 12 -133 -25 -207 -84 -55 -43 -59 -44 -80 -30 -33 23
-64 19 -87 -10 -24 -30 -27 -68 -8 -104 12 -22 11 -29 -13 -60 -14 -19 -50
-74 -80 -122 -30 -49 -58 -88 -62 -88 -5 0 -8 -6 -8 -13 0 -7 -13 -26 -29 -41
l-29 -28 0 164 c0 193 -17 273 -85 410 l-44 88 48 52 c56 61 160 237 188 320
11 31 22 81 26 111 l7 55 102 37 c55 21 119 46 140 57 l39 20 21 -25 c31 -37
58 -41 91 -16 25 20 27 26 22 71 -3 26 -3 48 2 48 4 0 35 25 68 55 44 39 67
53 80 49 14 -4 15 -4 4 4 -11 8 -9 19 12 63 15 29 30 74 33 100 6 43 9 48 44
62 34 13 40 13 56 -2 17 -15 17 -15 5 2 -22 28 -6 31 29 6 29 -22 33 -22 58
-8 34 19 39 45 14 72 l-21 22 23 27 c13 14 37 33 54 42 69 36 116 147 65 154
-12 2 -33 -4 -47 -13 -25 -17 -26 -16 -59 19 -60 64 -136 39 -258 -84 -68 -68
-79 -76 -100 -67 -25 9 -131 10 -160 2 -11 -4 -25 9 -44 37 -45 69 -76 98
-107 98 -21 0 -29 -6 -33 -23 -6 -22 25 -119 47 -144 7 -9 -3 -18 -39 -35 -54
-26 -47 -22 -128 -84 -91 -70 -177 -172 -190 -226 -7 -25 -7 -25 -52 -12 -26
8 -58 14 -72 14 -22 0 -29 7 -44 48 -39 107 -142 202 -218 202 -84 0 -122 -47
-100 -123 17 -57 56 -122 104 -174 l39 -42 -31 -40 c-75 -95 -127 -257 -119
-376 l3 -55 -50 6 c-27 4 -53 9 -56 13 -5 5 -51 185 -55 216 0 6 -4 19 -9 30
-61 156 -57 127 -51 358 6 232 12 305 30 322 6 7 27 37 46 68 19 31 42 56 51
57 25 0 69 39 69 60 0 10 -11 27 -25 38 -15 12 -25 30 -25 46 0 59 -50 111
-98 103 -45 -8 -122 -70 -148 -119 -17 -33 -30 -36 -39 -8 -11 34 -35 50 -75
50 -47 0 -74 -31 -69 -78 3 -23 -6 -40 -38 -75 -39 -42 -42 -44 -59 -28 -18
15 -18 15 -1 -5 16 -19 16 -23 -4 -64 -11 -23 -23 -66 -26 -95 l-6 -52 -46 17
c-25 10 -72 21 -103 25 l-58 7 -20 64 c-11 36 -33 121 -50 189 l-30 124 21 36
c17 28 20 47 17 85 -3 28 0 54 6 62 9 9 8 10 -5 0 -13 -10 -20 -8 -35 9 -29
32 -51 41 -73 30 -15 -9 -26 -3 -62 31 -60 57 -120 82 -196 81 -49 0 -63 3
-63 14 0 8 -14 34 -30 59 -25 36 -29 47 -20 64 22 40 -33 110 -86 110 -8 0
-19 -11 -24 -25z"/>
</g>
</svg>
