<?xml version="1.0" standalone="no"?>
<!DOCTYPE svg PUBLIC "-//W3C//DTD SVG 20010904//EN"
 "http://www.w3.org/TR/2001/REC-SVG-20010904/DTD/svg10.dtd">
<svg version="1.0" xmlns="http://www.w3.org/2000/svg"
 width="314.000000pt" height="400.000000pt" viewBox="0 0 314.000000 400.000000"
 preserveAspectRatio="xMidYMid meet">

<g transform="translate(0.000000,400.000000) scale(0.100000,-0.100000)"
fill="#000000" stroke="none">
<path d="M0 2000 l0 -2000 1570 0 1570 0 0 2000 0 2000 -1570 0 -1570 0 0
-2000z m1823 1726 c10 -8 14 -16 9 -17 -5 -2 -13 -35 -17 -73 -4 -45 -3 -66 3
-62 6 3 13 0 16 -6 3 -7 4 15 3 50 -1 34 2 62 6 62 5 0 5 6 1 13 -5 9 -4 9 6
0 7 -6 14 -35 15 -64 2 -30 9 -58 17 -63 7 -6 19 -24 26 -39 12 -27 11 -28
-16 -25 -37 4 -40 -27 -8 -89 l25 -48 1 41 c0 43 23 67 34 38 3 -9 1 -12 -4
-9 -6 4 -5 -6 2 -20 9 -20 9 -39 0 -84 -9 -40 -10 -80 -3 -127 13 -100 2 -176
-26 -189 -14 -6 -23 -18 -23 -33 0 -19 -2 -21 -14 -10 -7 7 -11 19 -9 25 8 21
-11 15 -25 -7 -14 -23 -34 -18 -25 7 10 25 -20 10 -35 -18 -14 -24 -14 -24 -9
6 4 20 -1 37 -13 53 -25 30 -30 28 -30 -16 0 -21 -5 -43 -12 -50 -8 -8 -8 -15
0 -24 8 -10 8 -18 0 -28 -8 -12 -9 -12 -4 3 3 9 1 17 -5 17 -22 0 -41 33 -64
112 -13 45 -22 85 -19 89 2 4 -1 19 -8 34 l-12 26 -12 -23 c-12 -22 -13 -22
-20 -3 -4 11 -14 38 -23 60 -16 37 -16 44 -2 85 14 38 14 54 5 100 -9 40 -12
47 -13 25 -2 -42 -12 -76 -21 -70 -4 3 -10 -9 -14 -27 -5 -23 5 -58 36 -139
23 -59 46 -105 51 -102 5 3 6 -4 3 -18 -7 -23 -6 -23 8 -5 14 17 15 16 21 -20
4 -22 16 -59 27 -83 15 -34 17 -46 7 -55 -9 -8 -10 -8 -5 1 7 13 -11 60 -32
82 -11 11 -12 9 -5 -15 4 -16 7 -50 7 -76 -1 -26 3 -45 7 -42 5 3 6 -2 3 -10
-7 -17 -24 -12 -24 7 0 15 -35 38 -44 30 -3 -4 -6 -13 -6 -21 0 -12 3 -12 15
-2 10 9 15 9 15 1 0 -6 -4 -11 -10 -11 -5 0 -7 -8 -3 -17 5 -15 3 -14 -10 2
-9 11 -17 26 -17 33 0 17 -20 15 -20 -2 0 -8 5 -18 10 -21 6 -3 10 -14 10 -23
0 -10 -6 -5 -16 13 -25 50 -36 54 -29 13 7 -34 5 -38 -14 -38 -18 0 -20 -4
-15 -25 4 -15 2 -25 -5 -25 -6 0 -8 7 -5 15 4 8 2 15 -4 15 -16 0 -23 -30 -11
-51 9 -18 8 -19 -10 -7 -11 6 -17 16 -15 20 3 4 0 8 -7 8 -6 0 -9 -8 -6 -20 6
-23 -11 -27 -19 -5 -8 19 -24 19 -24 0 0 -11 -5 -12 -26 -5 -40 16 -42 11 -4
-8 24 -12 34 -23 32 -36 -3 -14 1 -17 12 -13 23 9 20 2 -8 -16 -20 -14 -26
-14 -42 -2 -18 13 -18 13 1 12 12 -1 21 5 23 17 3 13 0 17 -11 13 -15 -6 -62
35 -52 45 3 3 -4 8 -15 11 -20 5 -20 4 -7 -16 40 -63 42 -66 30 -78 -10 -10
-6 -18 15 -37 23 -20 23 -22 5 -13 -13 7 -23 8 -23 2 0 -5 5 -11 12 -13 6 -2
9 -10 6 -18 -3 -9 -27 10 -68 53 -35 37 -68 67 -74 67 -7 0 -7 -3 0 -8 20 -12
84 -116 84 -135 0 -10 -4 -16 -9 -12 -5 3 -12 1 -16 -5 -3 -5 0 -10 7 -10 9 0
9 -3 -2 -10 -13 -8 -13 -10 -1 -10 22 0 0 -19 -26 -23 -30 -4 -39 -15 -19 -23
9 -3 16 -10 16 -15 0 -5 -12 -1 -27 8 -26 17 -27 17 -20 0 8 -22 -11 -22 -41
-1 -27 19 -29 4 -3 -20 12 -11 19 -30 19 -48 -1 -16 5 -34 13 -39 12 -8 12
-10 -1 -18 -8 -5 -18 -7 -22 -5 -4 3 -8 -4 -8 -15 0 -12 -6 -21 -13 -21 -7 0
-21 -9 -30 -21 -18 -21 -16 -34 6 -34 5 0 12 -6 15 -12 6 -21 -17 -15 -43 12
-30 29 -32 21 -5 -22 11 -18 15 -33 10 -33 -6 0 -10 -4 -10 -10 0 -5 9 -10 20
-10 21 0 28 -19 8 -21 -10 0 -10 -2 0 -6 6 -2 12 -12 12 -21 0 -15 -2 -15 -10
-2 -8 13 -14 11 -35 -12 -24 -26 -25 -28 -5 -28 12 0 20 7 20 17 0 9 3 14 6
10 4 -3 2 -19 -4 -36 -9 -27 -8 -30 14 -35 24 -6 36 -49 13 -44 -13 3 -31 -50
-22 -65 3 -5 -5 -4 -18 3 -20 9 -18 6 7 -18 18 -17 40 -34 50 -40 16 -9 16
-12 4 -27 -14 -16 -13 -17 8 -11 13 5 22 3 22 -3 0 -6 -7 -11 -15 -11 -8 0
-15 -5 -15 -11 0 -6 7 -8 16 -5 12 4 15 2 10 -9 -4 -11 1 -15 19 -15 16 0 25
-6 25 -16 0 -10 6 -14 14 -11 7 3 17 2 22 -3 5 -5 38 -10 74 -11 36 -1 68 -7
72 -13 4 -6 15 -6 33 2 15 7 53 15 84 19 40 4 61 11 69 23 9 15 6 18 -26 24
-58 10 -107 38 -110 64 -2 12 1 22 7 22 6 0 11 6 11 14 0 29 88 49 212 49 65
0 118 3 118 8 0 5 -18 9 -40 9 -22 0 -40 3 -40 8 0 4 28 18 61 30 44 17 71 22
96 17 33 -6 34 -6 22 17 -8 14 -13 60 -13 113 0 70 4 100 20 135 20 43 97 130
116 130 4 0 8 20 8 44 0 34 -5 47 -22 60 -22 16 -22 16 -2 6 19 -8 23 -6 28
16 12 46 37 73 72 80 54 10 77 -1 103 -50 l25 -45 12 34 c6 19 9 45 7 58 -3
14 -1 27 5 31 5 3 7 35 4 74 -4 56 -1 75 17 109 20 40 20 42 2 38 -11 -2 -25
3 -32 11 -6 8 -8 14 -4 14 4 0 2 7 -5 15 -14 17 -30 20 -30 4 0 -5 5 -7 11 -3
7 4 10 1 7 -7 -3 -8 -13 -15 -24 -16 -10 -2 -14 0 -8 3 6 2 9 16 6 29 -4 21
-6 22 -19 10 -8 -8 -19 -15 -24 -15 -6 0 -3 7 5 16 17 17 22 49 6 39 -5 -3
-10 -14 -10 -23 0 -15 -2 -15 -10 -2 -8 12 -11 13 -19 1 -6 -9 -11 -10 -15 -2
-5 8 -13 8 -26 1 -14 -7 -18 -6 -16 5 1 8 5 18 9 21 12 12 8 24 -8 24 -8 0
-15 5 -15 12 0 6 -3 8 -6 5 -4 -4 -1 -13 6 -22 11 -13 10 -14 -4 -9 -9 3 -16
1 -16 -6 0 -6 -4 -8 -10 -5 -11 7 -6 60 10 115 26 90 3 306 -37 352 -21 24
-11 70 38 167 35 70 76 121 99 121 7 0 5 -53 -4 -125 -5 -32 -4 -36 5 -21 6
10 20 27 30 37 15 15 17 24 9 45 -6 15 -8 29 -5 32 3 3 5 1 5 -4 0 -5 4 -15 9
-23 7 -10 20 -6 61 22 29 20 58 33 65 31 17 -7 31 -42 50 -124 18 -81 18 -85
0 -66 -8 8 -15 22 -15 30 0 9 -4 16 -10 16 -6 0 -10 -30 -10 -69 0 -38 -3 -83
-7 -101 -4 -24 -3 -31 5 -26 17 10 15 -13 -4 -49 -14 -27 -10 -25 28 14 48 48
124 91 157 88 25 -2 25 -1 4 -18 -11 -10 -14 -10 -9 -1 4 6 2 12 -3 12 -6 0
-12 -4 -12 -10 -3 -19 -5 -25 -19 -50 -8 -15 -14 -58 -15 -110 -1 -75 -5 -94
-37 -165 -25 -56 -33 -84 -26 -92 6 -7 7 -21 4 -30 -4 -10 12 1 36 25 24 23
48 42 52 42 5 0 5 -15 1 -32 -3 -18 -9 -45 -11 -61 l-5 -27 26 26 c50 50 80
114 54 114 -5 0 -7 -5 -4 -10 4 -6 2 -9 -4 -8 -5 2 -17 -6 -26 -17 l-16 -20
10 20 c5 11 21 31 35 44 35 33 79 109 70 122 -4 6 -18 -3 -36 -23 l-30 -33 22
38 c12 20 18 37 14 37 -11 0 96 109 120 122 32 17 76 27 76 17 0 -5 -15 -19
-32 -30 -18 -12 -24 -18 -13 -14 36 13 78 24 74 21 -2 -3 -21 -18 -43 -35 -21
-17 -36 -31 -32 -31 13 0 86 53 86 63 0 6 3 8 6 4 3 -3 -17 -34 -45 -69 -28
-34 -52 -68 -52 -75 -3 -27 -4 -32 -13 -40 -5 -5 -6 -2 -1 6 5 10 4 12 -4 7
-6 -4 -9 -12 -5 -17 3 -5 -16 -30 -43 -54 -32 -30 -42 -45 -31 -45 10 0 23 7
30 15 42 50 42 50 52 22 7 -19 17 -27 33 -27 33 0 28 -17 -7 -25 -41 -9 -46
-22 -7 -18 l32 4 -28 -25 c-36 -33 -27 -33 28 0 l44 25 -49 -89 c-48 -85 -101
-154 -84 -106 4 10 15 25 23 32 10 8 11 11 2 6 -11 -5 -12 -1 -7 22 9 33 35
66 47 58 4 -2 13 6 19 18 11 22 10 22 -4 4 -9 -11 -16 -16 -16 -11 0 4 -10 0
-21 -11 -14 -12 -23 -15 -26 -8 -6 17 -43 5 -85 -29 -44 -35 -56 -31 -38 13 7
17 10 33 8 36 -6 5 -20 -31 -37 -94 -7 -23 -25 -57 -40 -75 -15 -17 -34 -43
-41 -57 -11 -22 -8 -21 23 9 20 19 33 39 30 45 -3 6 -3 8 2 4 4 -4 26 8 48 27
58 50 69 43 14 -8 -26 -24 -44 -47 -40 -51 5 -4 1 -6 -7 -4 -8 2 -15 -4 -16
-12 0 -8 -2 -18 -4 -22 -1 -5 -3 -11 -4 -15 -3 -13 -36 -73 -41 -73 -2 0 -3 9
-2 19 0 11 5 17 10 14 5 -3 6 5 2 18 -5 20 -4 21 5 9 10 -13 11 -13 7 2 -3 9
1 19 9 22 8 3 14 11 14 18 0 6 -13 -1 -28 -15 -23 -22 -29 -36 -28 -67 1 -22
-2 -40 -6 -40 -5 0 -8 -8 -8 -19 0 -30 -29 -105 -46 -118 -8 -6 -11 -14 -6
-17 10 -6 -7 -86 -24 -107 -24 -30 -25 -39 -7 -32 14 5 13 1 -6 -20 -14 -15
-34 -27 -45 -26 -18 1 -17 3 7 12 15 6 27 14 27 18 0 9 -20 6 -37 -4 -6 -4
-14 -3 -18 3 -5 8 14 15 36 12 4 -1 9 17 11 39 3 35 2 38 -9 23 -7 -10 -13
-13 -13 -8 0 6 7 19 15 30 16 21 20 64 6 64 -5 0 -11 -14 -15 -31 -5 -25 -10
-30 -26 -26 -13 3 -20 0 -20 -9 0 -8 -4 -14 -9 -14 -16 0 -19 -53 -4 -77 14
-22 14 -22 -16 -20 -31 2 -44 28 -21 42 12 8 13 25 2 25 -18 0 -32 -49 -22
-75 6 -16 6 -25 0 -25 -6 0 -10 5 -10 12 0 6 -2 9 -5 6 -11 -11 7 -37 23 -32
15 5 15 4 0 -6 -11 -7 -18 -24 -18 -44 0 -25 -5 -35 -20 -39 -13 -3 -20 0 -20
9 0 8 6 11 18 7 13 -5 15 -3 5 7 -9 10 -18 8 -43 -14 -18 -14 -37 -23 -42 -20
-7 4 -8 2 -4 -5 4 -6 13 -8 19 -5 9 5 8 3 0 -6 -10 -11 -16 -10 -34 5 -20 19
-20 19 -13 -9 5 -23 4 -28 -7 -24 -10 4 -15 -2 -17 -20 -1 -15 -9 -30 -18 -35
-18 -10 -11 -41 17 -71 21 -22 24 -61 10 -99 -8 -20 -15 -24 -38 -19 -39 7
-22 -9 19 -17 23 -5 34 -14 39 -31 12 -43 10 -105 -6 -151 -7 -24 -19 -63 -25
-86 l-10 -41 -61 18 c-33 10 -71 25 -83 34 -21 13 -23 19 -16 58 7 38 7 40 -6
24 -12 -17 -16 -17 -30 -5 -16 13 -16 12 -5 -11 l13 -25 -23 22 c-13 13 -27
45 -35 80 -7 32 -13 49 -14 38 -6 -79 -13 -91 -68 -107 -14 -4 -28 -1 -37 8
-13 13 -18 11 -44 -18 -29 -32 -30 -33 -45 -13 -18 23 -21 13 -6 -16 6 -10 7
-19 2 -19 -5 0 -24 -14 -42 -30 -18 -16 -43 -30 -54 -30 -21 0 -90 -39 -71
-40 6 -1 -15 -23 -44 -50 -52 -45 -54 -50 -43 -74 13 -30 6 -33 -26 -10 -12 8
-22 13 -22 9 0 -3 -13 1 -30 10 -17 9 -30 20 -30 26 0 11 15 4 43 -19 17 -15
22 -7 11 21 -3 9 -13 13 -25 10 -12 -3 -19 0 -19 8 0 11 -2 11 -8 1 -6 -9 -19
-1 -46 28 -20 22 -41 40 -47 40 -5 0 -14 12 -20 28 -10 24 -7 29 23 52 18 14
56 46 83 71 28 25 59 51 70 57 20 11 19 11 -2 12 -12 0 -48 -8 -79 -17 -47
-15 -65 -28 -108 -77 -28 -33 -45 -57 -38 -52 7 4 12 2 12 -4 0 -6 5 -8 11 -4
8 5 8 9 -1 14 -9 5 -9 9 -1 14 6 4 11 2 11 -4 0 -6 6 -8 13 -4 6 4 -1 -7 -17
-24 -19 -21 -27 -38 -23 -51 3 -12 1 -21 -5 -21 -5 0 -7 -4 -3 -10 3 -5 13 -3
23 5 17 15 32 19 32 10 1 -9 -87 -73 -142 -104 -77 -43 -190 -74 -244 -68 -25
2 -47 7 -50 9 -2 3 4 26 15 51 l20 45 -71 -24 c-73 -24 -108 -30 -108 -16 0 9
62 60 117 96 38 25 41 31 41 71 0 57 20 92 84 150 29 27 46 46 37 43 -9 -4
-43 -1 -75 6 -54 10 -62 10 -94 -9 -49 -28 -81 -67 -68 -82 15 -18 0 -37 -18
-22 -11 9 -18 6 -34 -12 -10 -13 -19 -28 -19 -34 0 -5 6 -2 13 8 9 12 15 14
18 6 2 -7 24 5 52 30 26 22 43 41 39 41 -5 0 -15 -6 -23 -12 -8 -7 -6 -3 4 10
11 12 25 22 32 22 7 0 25 12 39 27 14 15 25 22 25 16 0 -7 -5 -15 -10 -18 -6
-4 -8 -11 -4 -16 3 -5 10 -7 15 -4 5 4 9 0 9 -9 0 -24 -76 -82 -131 -99 -74
-24 -89 -23 -89 11 0 37 41 121 73 152 31 29 33 36 10 44 -24 10 -81 -24 -92
-54 l-9 -25 -1 25 c0 14 6 36 14 50 21 36 19 39 -25 46 -40 7 -50 23 -32 51 9
14 143 63 176 64 17 0 15 3 -8 11 -26 10 -104 0 -154 -19 -30 -12 4 30 44 53
43 25 59 42 29 30 -44 -16 13 58 63 83 21 10 50 21 67 25 l30 8 -25 13 c-31
18 -57 19 -63 3 -4 -9 -6 -7 -6 3 -1 13 -14 16 -67 18 -37 1 -74 5 -83 10 -9
5 -22 6 -29 4 -18 -7 8 45 36 70 20 18 20 18 -9 75 -33 65 -33 64 60 91 60 18
119 19 246 7 l80 -8 -92 90 c-89 87 -117 126 -134 184 -6 23 -4 31 14 43 29
20 67 19 129 -5 63 -24 64 -24 48 -5 -6 8 -9 19 -5 25 4 6 1 9 -6 8 -6 -2 -14
3 -17 11 -3 9 0 11 8 6 9 -5 11 -4 6 4 -4 6 -12 9 -17 6 -7 -5 -49 73 -49 91
0 11 71 74 83 74 14 0 87 -21 120 -35 17 -7 16 -2 -7 42 -24 48 -41 153 -24
153 4 0 8 -4 8 -10 0 -5 12 -15 28 -23 23 -11 38 -10 107 8 l80 20 -24 50
c-13 28 -24 66 -25 85 -1 30 3 36 23 38 41 6 86 -7 144 -42 l57 -35 0 62 c1
34 7 76 15 92 l14 30 -4 -30 -5 -30 12 33 c6 17 15 32 19 32 5 0 9 38 9 84 0
47 4 87 9 90 5 3 20 -27 33 -67 14 -39 30 -71 36 -70 6 2 14 -6 17 -17 7 -21
25 -28 25 -9 0 5 5 7 10 4 6 -3 10 -11 10 -16 0 -6 -4 -8 -9 -4 -5 3 -12 1
-15 -4 -3 -5 3 -11 14 -14 11 -3 22 -2 24 2 6 10 -43 86 -54 84 -5 -2 -7 3 -4
11 3 7 -1 20 -8 27 -19 19 -58 76 -58 83 0 4 13 0 29 -9 28 -14 81 -73 81 -89
0 -4 9 -17 21 -29 11 -12 29 -37 38 -56 l18 -34 17 70 c19 75 54 122 108 142
30 11 56 -8 42 -31 -4 -7 8 3 28 22 19 19 44 57 53 83 18 48 50 97 63 97 4 0
15 -7 25 -14z m524 -258 c-3 -7 -5 -2 -5 12 0 14 2 19 5 13 2 -7 2 -19 0 -25z
m-812 -158 c3 -5 1 -10 -4 -10 -6 0 -11 5 -11 10 0 6 2 10 4 10 3 0 8 -4 11
-10z m415 -320 c6 -11 8 -20 6 -20 -3 0 -10 9 -16 20 -6 11 -8 20 -6 20 3 0
10 -9 16 -20z m-20 -30 c0 -5 -2 -10 -4 -10 -3 0 -8 5 -11 10 -3 6 -1 10 4 10
6 0 11 -4 11 -10z m54 -16 c3 -8 2 -12 -4 -9 -6 3 -10 10 -10 16 0 14 7 11 14
-7z m251 -84 c-3 -5 -12 -10 -18 -10 -7 0 -6 4 3 10 19 12 23 12 15 0z m255
-194 c0 -2 -8 -10 -17 -17 -16 -13 -17 -12 -4 4 13 16 21 21 21 13z m-521 -72
c14 -12 -19 -1 -35 12 -18 14 -18 14 6 3 14 -6 27 -13 29 -15z m-126 1 c-3 -9
-8 -14 -10 -11 -3 3 -2 9 2 15 9 16 15 13 8 -4z m67 -6 c0 -4 -13 -10 -29 -14
-16 -3 -36 -14 -45 -24 -11 -12 -25 -16 -42 -13 -18 3 -22 7 -13 13 7 4 18 4
24 -1 7 -6 17 -2 28 10 9 11 24 20 32 20 8 0 15 4 15 8 0 5 7 9 15 9 8 0 15
-4 15 -8z m-125 -9 c3 -6 -4 -10 -17 -10 -18 0 -20 2 -8 10 19 12 18 12 25 0z
m183 -18 c8 -6 2 -9 -18 -9 -20 0 -26 3 -18 9 7 4 15 8 18 8 3 0 11 -4 18 -8z
m-218 -17 c-7 -8 -9 -15 -4 -15 4 0 3 -5 -4 -12 -9 -9 -15 -9 -24 1 -11 11
-10 12 1 6 11 -6 13 -4 8 9 -4 10 -3 15 3 11 6 -3 10 -1 10 4 0 6 5 11 11 11
8 0 8 -5 -1 -15z m927 -7 c-3 -8 -6 -5 -6 6 -1 11 2 17 5 13 3 -3 4 -12 1 -19z
m-987 2 c-13 -9 -13 -11 0 -20 9 -6 10 -10 3 -10 -15 0 -26 17 -18 30 3 6 12
10 18 10 7 0 6 -4 -3 -10z m180 -5 c-7 -8 -17 -15 -22 -15 -11 0 14 29 26 30
5 0 3 -7 -4 -15z m55 -5 c-3 -5 -12 -10 -18 -10 -7 0 -6 4 3 10 19 12 23 12
15 0z m-250 -38 c-3 -3 -11 0 -18 7 -9 10 -8 11 6 5 10 -3 15 -9 12 -12z m-60
-10 c-3 -3 -11 0 -18 7 -9 10 -8 11 6 5 10 -3 15 -9 12 -12z m115 14 c0 -2 -9
-6 -20 -9 -11 -3 -18 -1 -14 4 5 9 34 13 34 5z m-1219 -41 l34 -14 -42 2 c-45
3 -86 27 -46 27 11 0 36 -7 54 -15z m1033 -7 c-3 -4 -11 -5 -19 -1 -21 7 -19
12 4 10 11 0 18 -5 15 -9z m96 8 c0 -2 -7 -9 -15 -16 -13 -11 -14 -10 -9 4 5
14 24 23 24 12z m-450 -28 c0 -5 -9 -4 -20 2 -11 6 -20 12 -20 14 0 2 9 2 20
-1 11 -3 20 -9 20 -15z m-20 -23 c11 -13 10 -14 -4 -9 -9 3 -16 10 -16 15 0
13 6 11 20 -6z m335 -35 c-3 -5 -12 -10 -18 -10 -7 0 -6 4 3 10 19 12 23 12
15 0z m-341 -45 c-7 -16 -24 -21 -24 -6 0 8 7 13 27 20 1 1 0 -6 -3 -14z m334
-23 c-10 -2 -18 -8 -18 -13 0 -6 -5 -7 -12 -3 -8 5 -6 11 7 20 10 7 23 10 29
6 7 -4 5 -8 -6 -10z m-348 -13 c0 -6 -6 -9 -12 -6 -7 2 -22 0 -33 -5 -20 -9
-20 -9 -1 6 23 18 46 21 46 5z m670 -36 c0 -7 -5 -13 -11 -13 -5 0 -7 5 -4 10
3 6 2 10 -4 10 -5 0 -14 -7 -19 -16 -8 -15 -10 -15 -15 0 -4 10 -3 15 2 12 14
-9 21 20 8 34 -7 7 0 5 15 -6 15 -10 28 -25 28 -31z m-120 -13 c0 -5 -4 -10
-10 -10 -5 0 -10 5 -10 10 0 6 5 10 10 10 6 0 10 -4 10 -10z m-212 -25 c-1
-13 -6 -21 -10 -17 -5 5 -6 16 -2 25 9 24 14 21 12 -8z m280 -21 c-12 -12 -17
-13 -23 -3 -5 7 -4 10 2 6 6 -4 14 0 17 9 4 9 9 14 13 10 4 -3 0 -14 -9 -22z
m-313 -13 c-3 -6 -11 -8 -17 -5 -6 4 -5 9 3 15 16 10 23 4 14 -10z m285 -12
c6 -10 7 -19 3 -18 -20 3 -34 -2 -28 -11 3 -5 2 -10 -4 -10 -12 0 -26 20 -14
20 4 0 14 4 22 9 13 8 13 12 0 27 -8 11 -9 15 -2 10 7 -4 18 -16 23 -27z m-43
8 c0 -8 -6 -14 -14 -14 -9 0 -10 4 -2 14 6 7 12 13 14 13 1 0 2 -6 2 -13z
m686 -14 c-7 -2 -19 -2 -25 0 -7 3 -2 5 12 5 14 0 19 -2 13 -5z m-945 -28 c-6
-14 -15 -25 -19 -25 -4 0 -2 11 4 25 7 14 15 25 19 25 4 0 2 -11 -4 -25z m105
-5 c3 -11 1 -18 -4 -14 -5 3 -9 12 -9 20 0 20 7 17 13 -6z m-143 -5 c-7 -8
-17 -15 -23 -15 -6 0 -2 7 9 15 25 19 30 19 14 0z m160 -55 c6 0 8 4 5 10 -3
5 0 7 9 4 8 -3 12 -12 9 -20 -5 -13 -9 -13 -29 1 -26 17 -38 19 -29 6 3 -5 1
-12 -4 -15 -5 -3 -11 3 -14 14 -3 11 -1 17 4 14 6 -3 7 6 3 23 l-6 28 21 -32
c11 -18 26 -33 31 -33z m-90 -1 c0 -13 -17 -19 -17 -6 0 7 -4 21 -8 32 -7 20
-6 20 9 1 9 -11 16 -23 16 -27z m238 1 c-2 -7 -10 1 -17 16 -12 27 -11 28 4
12 10 -9 16 -21 13 -28z m-94 -6 c3 -8 2 -12 -4 -9 -6 3 -10 10 -10 16 0 14 7
11 14 -7z m38 -2 c-7 -2 -9 -9 -6 -14 4 -7 2 -8 -4 -4 -6 4 -9 13 -6 21 4 8
11 12 17 8 8 -5 7 -8 -1 -11z m-87 -21 c3 -5 1 -12 -5 -16 -5 -3 -10 1 -10 9
0 18 6 21 15 7z m582 -31 c6 -16 9 -38 6 -49 -3 -11 2 -43 10 -73 8 -29 18
-71 21 -93 l6 -40 -25 53 c-13 29 -22 59 -19 67 10 25 -25 124 -48 136 -16 9
-18 13 -7 20 26 16 45 9 56 -21z m63 -105 c0 -5 -11 4 -25 20 -13 17 -24 35
-24 40 0 6 11 -3 24 -20 14 -16 25 -34 25 -40z m-609 -298 c-10 -9 -11 -8 -5
6 3 10 9 15 12 12 3 -3 0 -11 -7 -18z m-1104 -3 c-3 -3 -12 -4 -19 -1 -8 3 -5
6 6 6 11 1 17 -2 13 -5z m557 -9 c-4 -8 -11 -15 -16 -15 -6 0 -5 6 2 15 7 8
14 15 16 15 2 0 1 -7 -2 -15z m-21 -106 c-9 -9 -12 -7 -10 9 1 14 5 18 11 12
7 -7 6 -14 -1 -21z m578 -206 c13 -16 12 -17 -3 -4 -10 7 -18 15 -18 17 0 8 8
3 21 -13z m-64 -205 c-3 -8 -6 -5 -6 6 -1 11 2 17 5 13 3 -3 4 -12 1 -19z
m1326 -893 c-3 -9 -8 -14 -10 -11 -3 3 -2 9 2 15 9 16 15 13 8 -4z m101 -35
c-22 -9 -29 -6 -20 9 4 6 14 7 23 4 15 -6 14 -7 -3 -13z"/>
<path d="M1762 3669 c-12 -28 -19 -56 -15 -62 3 -5 1 -7 -5 -3 -14 8 -20 -22
-11 -56 4 -16 6 -28 4 -28 -3 0 -11 12 -19 28 l-15 27 0 -30 c-1 -43 10 -76
21 -69 6 4 8 -3 4 -17 -3 -14 1 -10 9 9 9 20 20 30 27 26 6 -4 19 4 28 17 17
22 17 24 -7 56 -25 32 -25 32 -8 89 21 72 14 79 -13 13z"/>
<path d="M2239 3676 c-22 -38 -47 -41 -28 -3 10 21 9 21 -10 -2 -12 -12 -18
-27 -15 -32 3 -5 0 -9 -6 -9 -6 0 -8 -4 -5 -10 3 -5 1 -10 -5 -10 -6 0 -8 -11
-5 -27 5 -26 5 -26 -4 -5 -11 23 -24 31 -15 9 3 -8 0 -25 -5 -39 -11 -28 4
-33 31 -10 13 10 13 0 1 -80 -7 -50 -11 -93 -9 -95 2 -2 7 15 11 39 11 79 17
98 25 98 5 0 6 -16 3 -34 -5 -30 8 -133 24 -190 3 -11 1 -16 -5 -12 -5 3 -10
-4 -10 -17 0 -12 -3 -33 -6 -47 -3 -14 -3 -18 0 -10 4 8 15 33 26 55 11 22 21
51 23 65 11 69 26 252 22 256 -2 3 -8 -21 -11 -53 -15 -127 -18 -145 -27 -132
-13 21 -10 98 5 157 8 28 11 52 6 52 -5 0 -2 26 5 57 7 32 12 60 10 62 -2 2
-14 -13 -26 -33z m11 -320 c0 -3 -4 -8 -10 -11 -5 -3 -10 -1 -10 4 0 6 5 11
10 11 6 0 10 -2 10 -4z m-9 -57 c-5 -13 -10 -19 -10 -12 -1 15 10 45 15 40 3
-2 0 -15 -5 -28z"/>
<path d="M2052 3598 c-20 -96 -23 -129 -16 -150 6 -20 7 -20 17 -3 10 19 24
205 15 205 -3 0 -10 -24 -16 -52z"/>
<path d="M2118 3563 c-19 -23 -31 -43 -24 -43 2 0 14 14 26 30 23 33 22 40 -2
13z"/>
<path d="M1286 3505 c3 -27 12 -68 20 -90 8 -22 16 -45 18 -52 1 -7 5 -16 9
-19 4 -4 7 -15 7 -24 0 -9 7 -17 15 -17 8 0 15 1 15 2 0 1 -12 30 -27 66 -14
35 -35 91 -45 124 l-18 60 6 -50z"/>
<path d="M1983 3505 c0 -22 2 -30 4 -17 2 12 2 30 0 40 -3 9 -5 -1 -4 -23z"/>
<path d="M1681 3499 c0 -19 5 -43 10 -54 6 -13 7 -4 3 30 -8 60 -14 72 -13 24z"/>
<path d="M1637 3513 c-3 -5 -1 -26 3 -48 l8 -40 1 48 c1 45 -2 56 -12 40z"/>
<path d="M1593 3418 c1 -25 5 -44 9 -42 3 2 9 -4 12 -13 2 -10 2 0 -1 22 -10
66 -21 86 -20 33z"/>
<path d="M2357 3332 c-9 -10 -18 -27 -20 -39 -1 -11 -11 -31 -20 -44 -13 -17
-16 -19 -13 -6 4 11 2 16 -5 12 -5 -4 -7 -16 -3 -27 4 -14 2 -18 -5 -14 -6 4
-11 1 -11 -8 0 -8 -3 -23 -6 -33 -11 -30 53 61 81 117 28 55 29 72 2 42z"/>
<path d="M1395 3250 c3 -5 8 -10 11 -10 2 0 4 5 4 10 0 6 -5 10 -11 10 -5 0
-7 -4 -4 -10z"/>
<path d="M2564 3228 l-19 -23 23 19 c12 11 22 21 22 23 0 8 -8 2 -26 -19z"/>
<path d="M2653 3228 c-30 -35 -66 -89 -61 -93 2 -3 23 22 46 55 44 64 48 74
15 38z"/>
<path d="M1000 3214 c0 -6 7 -19 16 -30 14 -18 14 -18 3 6 -14 31 -19 36 -19
24z"/>
<path d="M1570 3215 c0 -5 5 -17 10 -25 5 -8 10 -10 10 -5 0 6 -5 17 -10 25
-5 8 -10 11 -10 5z"/>
<path d="M2650 3180 c-31 -39 -37 -57 -14 -42 11 8 56 82 50 82 -3 0 -19 -18
-36 -40z"/>
<path d="M1200 3186 c0 -2 7 -7 16 -10 8 -3 12 -2 9 4 -6 10 -25 14 -25 6z"/>
<path d="M1245 3160 c3 -5 8 -10 11 -10 2 0 4 5 4 10 0 6 -5 10 -11 10 -5 0
-7 -4 -4 -10z"/>
<path d="M2291 3114 c0 -11 3 -14 6 -6 3 7 2 16 -1 19 -3 4 -6 -2 -5 -13z"/>
<path d="M1151 3094 c0 -11 3 -14 6 -6 3 7 2 16 -1 19 -3 4 -6 -2 -5 -13z"/>
<path d="M2650 3064 c0 -8 5 -12 10 -9 6 3 10 10 10 16 0 5 -4 9 -10 9 -5 0
-10 -7 -10 -16z"/>
<path d="M938 3064 c23 -11 12 -24 -13 -14 -45 17 -26 0 22 -21 27 -11 61 -31
78 -43 52 -39 55 -39 45 -5 -11 37 -20 49 -20 26 0 -22 -9 -21 -40 3 -27 21
-21 27 11 10 32 -18 21 -3 -13 18 -18 11 -44 22 -58 26 -14 3 -19 3 -12 0z"/>
<path d="M880 3020 c0 -5 5 -10 10 -10 6 0 10 -6 9 -12 -4 -31 2 -48 16 -48 8
0 14 -5 13 -11 -4 -13 38 -45 72 -54 l25 -7 -23 20 c-13 12 -21 25 -18 30 3 5
-3 17 -14 27 -11 10 -20 24 -20 30 0 13 -42 45 -60 45 -5 0 -10 -4 -10 -10z"/>
<path d="M901 2904 c7 -8 34 -26 61 -40 49 -25 74 -32 48 -13 -12 9 -11 10 8
6 13 -3 20 -1 16 5 -3 5 -16 7 -29 4 -15 -4 -35 4 -64 24 -45 33 -60 38 -40
14z"/>
<path d="M2679 2903 c-13 -16 -12 -17 4 -4 16 13 21 21 13 21 -2 0 -10 -8 -17
-17z"/>
<path d="M1480 2850 c0 -5 5 -10 10 -10 6 0 10 5 10 10 0 6 -4 10 -10 10 -5 0
-10 -4 -10 -10z"/>
<path d="M681 2705 c8 -9 25 -17 38 -20 12 -2 32 -7 44 -11 17 -5 19 -3 11 5
-6 7 -23 13 -38 15 -15 1 -32 8 -38 14 -7 7 -17 12 -22 12 -6 0 -3 -7 5 -15z"/>
<path d="M680 2670 c0 -5 5 -10 11 -10 5 0 7 5 4 10 -3 6 -8 10 -11 10 -2 0
-4 -4 -4 -10z"/>
<path d="M710 2653 c0 -10 60 -57 64 -51 2 1 -12 16 -31 31 -18 16 -33 25 -33
20z"/>
<path d="M2141 2344 c0 -11 3 -14 6 -6 3 7 2 16 -1 19 -3 4 -6 -2 -5 -13z"/>
<path d="M2034 2304 c3 -9 6 -23 7 -32 0 -12 3 -10 10 6 10 25 5 42 -13 42 -5
0 -7 -7 -4 -16z"/>
<path d="M395 2230 c-3 -5 -1 -10 4 -10 6 0 11 5 11 10 0 6 -2 10 -4 10 -3 0
-8 -4 -11 -10z"/>
<path d="M428 2223 c7 -3 16 -2 19 1 4 3 -2 6 -13 5 -11 0 -14 -3 -6 -6z"/>
<path d="M2015 2180 c-3 -5 -2 -10 4 -10 5 0 13 5 16 10 3 6 2 10 -4 10 -5 0
-13 -4 -16 -10z"/>
<path d="M2056 2175 c-3 -9 -6 -22 -5 -28 0 -7 5 -1 10 12 5 13 8 26 5 28 -2
2 -6 -3 -10 -12z"/>
<path d="M770 2093 c8 -3 22 -11 30 -17 13 -10 13 -9 1 7 -7 9 -21 17 -30 16
-13 0 -14 -1 -1 -6z"/>
<path d="M1066 2031 c-4 -7 -5 -15 -2 -18 9 -9 19 4 14 18 -4 11 -6 11 -12 0z"/>
<path d="M583 1983 c9 -2 25 -2 35 0 9 3 1 5 -18 5 -19 0 -27 -2 -17 -5z"/>
<path d="M1860 1976 c4 -4 16 -4 26 2 16 9 14 10 -8 9 -15 -1 -23 -6 -18 -11z"/>
<path d="M1832 1941 c6 -10 18 -17 25 -14 7 3 20 0 28 -7 17 -14 31 -7 38 20
5 18 0 20 -49 20 -51 0 -53 -1 -42 -19z"/>
<path d="M988 1943 c7 -3 16 -2 19 1 4 3 -2 6 -13 5 -11 0 -14 -3 -6 -6z"/>
<path d="M1859 1904 c-9 -12 -10 -15 -1 -10 18 11 15 1 -13 -40 -14 -20 -25
-51 -25 -68 0 -24 -3 -27 -10 -16 -8 12 -10 11 -10 -8 0 -16 5 -22 18 -20 14
2 17 -4 17 -35 0 -20 4 -37 9 -37 8 0 5 25 -9 110 -5 29 -1 42 25 79 20 27 28
47 22 53 -5 5 -14 2 -23 -8z"/>
<path d="M1983 1875 c0 -22 2 -30 4 -17 2 12 2 30 0 40 -3 9 -5 -1 -4 -23z"/>
<path d="M1290 1690 c0 -5 7 -7 15 -4 8 4 15 8 15 10 0 2 -7 4 -15 4 -8 0 -15
-4 -15 -10z"/>
<path d="M880 1588 c-14 -33 -86 -101 -101 -96 -9 3 -3 11 16 21 25 14 27 16
9 17 -11 0 -29 -10 -40 -21 -10 -12 -28 -25 -39 -30 -15 -7 -9 -8 20 -5 l40 4
-37 -11 c-21 -6 -38 -14 -38 -19 0 -9 55 -3 107 13 42 13 56 32 69 96 11 57 9
67 -6 31z"/>
<path d="M664 1529 c-19 -22 -19 -22 3 -10 24 12 39 31 25 31 -5 0 -17 -10
-28 -21z"/>
<path d="M1073 1525 c-3 -9 -3 -18 -1 -21 3 -3 8 4 11 16 6 23 -1 27 -10 5z"/>
</g>
</svg>
