<?xml version="1.0" standalone="no"?>
<!DOCTYPE svg PUBLIC "-//W3C//DTD SVG 20010904//EN"
 "http://www.w3.org/TR/2001/REC-SVG-20010904/DTD/svg10.dtd">
<svg version="1.0" xmlns="http://www.w3.org/2000/svg"
 width="831.000000pt" height="637.000000pt" viewBox="0 0 831.000000 637.000000"
 preserveAspectRatio="xMidYMid meet">

<g transform="translate(0.000000,637.000000) scale(0.100000,-0.100000)"
fill="#000000" stroke="none">
<path d="M1450 5345 l0 -775 528 2 527 3 3 293 2 292 558 -2 557 -3 3 -1657 2
-1658 -170 0 -170 0 -2 208 -3 207 -130 5 -129 5 -62 145 c-35 80 -71 163 -80
185 -9 22 -27 63 -40 90 -12 28 -43 100 -68 160 -25 61 -50 117 -55 125 -8 15
-165 20 -793 29 -97 1 -108 3 -108 19 0 10 4 22 8 28 5 5 15 25 22 44 8 19 26
63 42 98 15 34 28 65 28 67 0 14 61 135 69 135 5 0 14 -15 22 -32 7 -18 25
-61 41 -96 15 -34 28 -65 28 -67 0 -2 14 -34 30 -70 17 -36 30 -69 30 -74 0
-28 34 -31 293 -29 l265 3 -18 40 c-10 22 -37 85 -60 140 -23 55 -53 123 -65
150 -56 125 -164 381 -167 395 -2 11 8 15 42 16 25 1 51 2 58 3 10 1 12 53 10
239 l-3 237 -520 0 -520 0 0 -240 0 -240 62 0 c34 0 65 -3 69 -7 4 -4 -6 -36
-21 -70 -15 -35 -36 -83 -47 -108 -11 -25 -26 -58 -34 -74 -8 -16 -14 -32 -14
-37 0 -4 -15 -40 -34 -81 -19 -40 -53 -118 -76 -173 -23 -55 -66 -154 -95
-220 -29 -66 -72 -165 -95 -220 -23 -55 -53 -124 -66 -153 -13 -29 -24 -55
-24 -57 0 -2 -13 -33 -28 -67 -16 -35 -37 -83 -48 -108 -10 -24 -28 -63 -39
-85 l-20 -40 -130 -5 -130 -5 0 -235 0 -235 473 -3 472 -2 -2 237 -3 238 -62
3 c-36 2 -63 8 -63 13 0 6 7 27 16 47 17 40 21 47 58 135 l25 57 388 -2 388
-3 20 -40 c37 -75 83 -194 77 -199 -3 -3 -34 -6 -69 -6 l-63 0 0 -240 0 -240
645 0 645 0 -2 -163 -3 -162 -295 -5 -295 -5 0 -525 0 -525 1123 -3 1122 -2
-2 527 -3 528 -292 3 -293 2 0 165 0 164 609 -6 610 -6 6 24 c3 13 4 123 3
244 l-3 220 -97 3 -98 3 0 514 c0 337 3 515 10 515 6 0 10 -5 10 -11 0 -6 41
-95 91 -197 51 -103 118 -241 149 -307 32 -66 104 -214 160 -330 56 -115 122
-252 146 -303 24 -50 47 -92 50 -92 2 0 60 114 128 252 68 139 184 377 258
528 74 151 154 317 179 368 24 50 47 92 52 92 4 0 6 -231 5 -512 l-3 -513 -90
-5 -90 -5 0 -240 0 -240 435 0 435 0 0 240 0 240 -90 5 -90 5 -3 742 -2 742
92 3 93 3 0 240 0 240 -398 3 -397 2 -9 -22 c-5 -13 -48 -104 -96 -203 -48
-99 -109 -225 -135 -280 -135 -283 -204 -426 -233 -487 -18 -37 -36 -66 -41
-65 -13 4 -12 3 -134 257 -60 124 -171 354 -247 513 l-139 287 -385 -2 -386
-3 -3 -234 c-2 -181 1 -236 10 -243 7 -4 48 -8 91 -8 l77 0 -2 -742 -3 -743
-90 -5 -90 -5 -5 -215 -5 -215 -167 -3 -168 -2 0 1670 0 1670 555 0 555 0 2
-292 3 -293 530 0 530 0 0 770 0 770 -2707 3 -2708 2 0 -775z"/>
</g>
</svg>
